<svg width="20" height="20" viewBox="0 0 20 20" fill="none" xmlns="http://www.w3.org/2000/svg">
  <path fill-rule="evenodd" clip-rule="evenodd" d="M2 3C2 2.44772 2.44772 2 3 2H15C16.6569 2 18 3.34315 18 5V15C18 16.6569 16.6569 18 15 18H3C2.44772 18 2 17.5523 2 17V3ZM7 5C6.44772 5 6 5.44772 6 6V10C6 10.5523 6.44772 11 7 11H13C13.5523 11 14 10.5523 14 10V6C14 5.44772 13.5523 5 13 5H7ZM6 14C6 13.4477 6.44772 13 7 13H13C13.5523 13 14 13.4477 14 14C14 14.5523 13.5523 15 13 15H7C6.44772 15 6 14.5523 6 14Z" fill="currentColor"/>
</svg>