<svg width="20" height="20" viewBox="0 0 20 20" fill="none" xmlns="http://www.w3.org/2000/svg">
<path fill-rule="evenodd" clip-rule="evenodd" d="M4 3C3.44772 3 3 3.44772 3 4V16C3 16.5523 3.44772 17 4 17H14C14.5523 17 15 16.5523 15 16V4C15 3.44772 14.5523 3 14 3H4ZM6 7C6 6.44772 6.44772 6 7 6H11C11.5523 6 12 6.44772 12 7C12 7.55228 11.5523 8 11 8H7C6.44772 8 6 7.55228 6 7ZM7 10C6.44772 10 6 10.4477 6 11C6 11.5523 6.44772 12 7 12H10C10.5523 12 11 11.5523 11 11C11 10.4477 10.5523 10 10 10H7Z" fill="currentColor"/>
<path d="M16 5V16C16 17.1046 15.1046 18 14 18H5C5 18 5.5 17.5 6 17H14C14.5523 17 15 16.5523 15 16V5H16Z" fill="currentColor" opacity="0.5"/>
</svg>
