<svg width="20" height="20" viewBox="0 0 20 20" fill="none" xmlns="http://www.w3.org/2000/svg">
<path fill-rule="evenodd" clip-rule="evenodd" d="M3 3C2.44772 3 2 3.44772 2 4V16C2 16.5523 2.44772 17 3 17H11C11.5523 17 12 16.5523 12 16V4C12 3.44772 11.5523 3 11 3H3ZM5 6C4.44772 6 4 6.44772 4 7V9C4 9.55228 4.44772 10 5 10H9C9.55228 10 10 9.55228 10 9V7C10 6.44772 9.55228 6 9 6H5ZM5 12C4.44772 12 4 12.4477 4 13C4 13.5523 4.44772 14 5 14H9C9.55228 14 10 13.5523 10 13C10 12.4477 9.55228 12 9 12H5Z" fill="currentColor"/>
<path d="M14 4V16C14 16.5523 14.4477 17 15 17H17C17.5523 17 18 16.5523 18 16V4C18 3.44772 17.5523 3 17 3H15C14.4477 3 14 3.44772 14 4Z" fill="currentColor" opacity="0.5"/>
</svg>
