<svg width="20" height="20" viewBox="0 0 20 20" fill="none" xmlns="http://www.w3.org/2000/svg">
<path fill-rule="evenodd" clip-rule="evenodd" d="M14 3C14 2.44772 13.5523 2 13 2H8C7.44772 2 7 2.44772 7 3V4H14V3ZM7 5V13.2676C6.5308 13.0974 6.02646 13 5.5 13C3.567 13 2 14.1193 2 15.5C2 16.8807 3.567 18 5.5 18C7.433 18 9 16.8807 9 15.5V7H12V11.2676C11.5308 11.0974 11.0265 11 10.5 11C8.567 11 7 12.1193 7 13.5V5ZM14 11.2676V5H12V11.2676C12.4692 11.0974 12.9735 11 13.5 11C13.672 11 13.8392 11.0103 14 11.0301V11.2676ZM14 13.5C14 12.1193 15.567 11 17.5 11C17.672 11 17.8392 11.0103 18 11.0301V13.5C18 14.8807 16.433 16 14.5 16C14.328 16 14.1608 15.9897 14 15.9699V13.5Z" fill="currentColor"/>
</svg>
