<svg width="20" height="20" viewBox="0 0 20 20" fill="none" xmlns="http://www.w3.org/2000/svg">
<path fill-rule="evenodd" clip-rule="evenodd" d="M6 1C4.34315 1 3 2.34315 3 4V16C3 17.6569 4.34315 19 6 19H14C15.6569 19 17 17.6569 17 16V4C17 2.34315 15.6569 1 14 1H6ZM5 4.5C5 3.67157 5.67157 3 6.5 3H13.5C14.3284 3 15 3.67157 15 4.5V15.5C15 16.3284 14.3284 17 13.5 17H6.5C5.67157 17 5 16.3284 5 15.5V4.5ZM8.5 4C8.22386 4 8 4.22386 8 4.5C8 4.77614 8.22386 5 8.5 5H11.5C11.7761 5 12 4.77614 12 4.5C12 4.22386 11.7761 4 11.5 4H8.5Z" fill="currentColor"/>
</svg>
