<svg width="20" height="20" viewBox="0 0 20 20" fill="none" xmlns="http://www.w3.org/2000/svg">
<path fill-rule="evenodd" clip-rule="evenodd" d="M3 6C2.44772 6 2 6.44772 2 7V13C2 13.5523 2.44772 14 3 14H17C17.5523 14 18 13.5523 18 13V7C18 6.44772 17.5523 6 17 6H3ZM7 9H6V8H5V9H4V10H5V11H6V10H7V9ZM13 9C12.4477 9 12 9.44772 12 10C12 10.5523 12.4477 11 13 11C13.5523 11 14 10.5523 14 10C14 9.44772 13.5523 9 13 9ZM15 8C15 7.44772 15.4477 7 16 7C16.5523 7 17 7.44772 17 8C17 8.55228 16.5523 9 16 9C15.4477 9 15 8.55228 15 8Z" fill="currentColor"/>
</svg>
