<svg width="20" height="20" viewBox="0 0 20 20" fill="none" xmlns="http://www.w3.org/2000/svg">
<path fill-rule="evenodd" clip-rule="evenodd" d="M10 2.5C5.85786 2.5 2.5 5.85786 2.5 10C2.5 14.1421 5.85786 17.5 10 17.5C14.1421 17.5 17.5 14.1421 17.5 10C17.5 5.85786 14.1421 2.5 10 2.5ZM6.5 11.25C7.19036 11.25 7.75 10.6904 7.75 10C7.75 9.30964 7.19036 8.75 6.5 8.75C5.80964 8.75 5.25 9.30964 5.25 10C5.25 10.6904 5.80964 11.25 6.5 11.25ZM11.25 10C11.25 10.6904 10.6904 11.25 10 11.25C9.30964 11.25 8.75 10.6904 8.75 10C8.75 9.30964 9.30964 8.75 10 8.75C10.6904 8.75 11.25 9.30964 11.25 10ZM13.5 11.25C14.1904 11.25 14.75 10.6904 14.75 10C14.75 9.30964 14.1904 8.75 13.5 8.75C12.8096 8.75 12.25 9.30964 12.25 10C12.25 10.6904 12.8096 11.25 13.5 11.25Z" fill="currentColor"/>
</svg>
