<svg width="18" height="18" viewBox="0 0 18 18" xmlns="http://www.w3.org/2000/svg">
<path fill-rule="evenodd" clip-rule="evenodd" d="M5 0C2.23858 0 0 2.23858 0 5V13C0 15.7614 2.23858 18 5 18H13C15.7614 18 18 15.7614 18 13V5C18 2.23858 15.7614 0 13 0H5ZM13.957 6.04289C14.3475 6.43342 14.3475 7.06658 13.957 7.45711L8.70701 12.7071C8.31648 13.0976 7.68332 13.0976 7.29279 12.7071L4.54279 9.95711C4.15227 9.56658 4.15227 8.93342 4.54279 8.54289C4.93332 8.15237 5.56648 8.15237 5.95701 8.54289L7.9999 10.5858L12.5428 6.04289C12.9333 5.65237 13.5665 5.65237 13.957 6.04289Z"/>
</svg>
