<svg width="24" height="24" viewBox="0 0 24 24" xmlns="http://www.w3.org/2000/svg">
<path d="M17.067 2.544C17.8009 2.75935 18.0308 3.68511 17.4834 4.21918L16.6819 5.00175C16.6195 5.06266 16.5738 5.1387 16.5499 5.22256L15.3478 9.45881C15.2919 9.6565 15.3639 9.86682 15.5211 9.99916C17.5805 11.7326 18.538 14.5803 17.7317 17.329C16.6434 21.0387 12.7539 23.1637 9.04422 22.0754C5.33457 20.9871 3.20954 17.0976 4.29783 13.3879C5.11503 10.6024 7.51165 8.70987 10.2256 8.40086C10.4344 8.37709 10.6146 8.23634 10.674 8.03472L11.899 3.86933C11.9255 3.77931 11.926 3.68337 11.9007 3.59301L11.6042 2.53614C11.3922 1.77984 12.0956 1.08554 12.8493 1.30664L17.067 2.544ZM15.4326 15.9971C15.5185 15.4516 15.0307 15.0293 14.4796 15.0652L7.49528 15.5187C6.94416 15.5546 6.51471 16.0375 6.67067 16.5673C7.2519 18.5414 9.13946 19.9216 11.279 19.7827C13.4189 19.6436 15.112 18.0301 15.4326 15.9971Z"/>
</svg>
