<svg width="16" height="16" viewBox="0 0 16 16" fill="none" xmlns="http://www.w3.org/2000/svg">
  <path d="M8 10a2 2 0 1 0 0-4 2 2 0 0 0 0 4z" stroke="currentColor" stroke-width="1.5"/>
  <path d="M12.933 10a1.066 1.066 0 0 0 .213 1.173l.04.04a1.294 1.294 0 1 1-1.833 1.833l-.04-.04a1.067 1.067 0 0 0-1.813.76v.113a1.293 1.293 0 1 1-2.587 0v-.06a1.067 1.067 0 0 0-.7-1.013 1.067 1.067 0 0 0-1.173.213l-.04.04a1.294 1.294 0 1 1-1.833-1.833l.04-.04a1.067 1.067 0 0 0-.76-1.813h-.114a1.293 1.293 0 0 1 0-2.587h.06a1.067 1.067 0 0 0 1.013-.7 1.066 1.066 0 0 0-.213-1.173l-.04-.04A1.293 1.293 0 1 1 4.953 2.86l.04.04a1.067 1.067 0 0 0 1.813-.76v-.113a1.293 1.293 0 0 1 2.587 0v.06a1.067 1.067 0 0 0 1.873.913l.04-.04a1.294 1.294 0 1 1 1.833 1.833l-.04.04a1.066 1.066 0 0 0 .76 1.813h.114a1.293 1.293 0 0 1 0 2.587h-.06a1.067 1.067 0 0 0-.913.873l-.02.094z" stroke="currentColor" stroke-width="1.5"/>
</svg>