<svg width="36" height="36" viewBox="0 0 36 36" fill="none" xmlns="http://www.w3.org/2000/svg">
<path d="M19 0C20.6567 0.000197898 22 1.34327 22 3C22 4.82855 24.2109 5.74415 25.5039 4.45117L25.834 4.12109C27.0056 2.94955 28.9056 2.94953 30.0771 4.12109L31.4912 5.53516C32.6628 6.70672 32.6628 8.60675 31.4912 9.77832L31.3213 9.94824C29.8264 11.4436 30.8855 14 33 14C34.6567 14.0002 36 15.3433 36 17V19C36 20.6567 34.6567 21.9998 33 22H32.873C31.1326 22 30.2605 24.1043 31.4912 25.335C32.6624 26.5065 32.6626 28.4057 31.4912 29.5771L30.0771 30.9912C28.9056 32.1628 27.0056 32.1628 25.834 30.9912C24.4192 29.5764 22.0002 30.5784 22 32.5791V33C22 34.6567 20.6567 35.9998 19 36H17C15.3431 36 14 34.6569 14 33V32.5332C14 30.5904 11.6511 29.6175 10.2773 30.9912C9.10576 32.1626 7.20668 32.1627 6.03516 30.9912L4.62109 29.5771C3.44957 28.4056 3.44967 26.5065 4.62109 25.335C5.85178 24.1043 4.97971 22 3.23926 22H3C1.34315 22 -7.24234e-08 20.6569 0 19V17C3.81686e-07 15.3431 1.34315 14 3 14C5.15613 14 6.23555 11.3928 4.71094 9.86816L4.62109 9.77832C3.44952 8.60675 3.44952 6.70673 4.62109 5.53516L6.03516 4.12109C7.20662 2.94976 9.10578 2.94992 10.2773 4.12109L10.5752 4.41895C11.8392 5.68252 14 4.78735 14 3C14 1.34315 15.3431 0 17 0H19ZM18 10C13.5817 10 10 13.5817 10 18C10 22.4183 13.5817 26 18 26C22.4181 25.9998 26 22.4182 26 18C26 13.5818 22.4181 10.0002 18 10Z" fill="currentColor"/>
</svg>
