<svg width="28" height="28" viewBox="0 0 28 28" fill="none" xmlns="http://www.w3.org/2000/svg">
<path fill-rule="evenodd" clip-rule="evenodd" d="M11.9494 20.8258C11.3565 21.8528 10.0432 22.2047 9.01615 21.6118C7.98909 21.0188 7.6372 19.7055 8.23017 18.6785C8.82314 17.6514 10.1364 17.2995 11.1635 17.8925C12.1905 18.4854 12.5424 19.7987 11.9494 20.8258ZM10.6086 21.1302C9.80838 21.3446 8.98587 20.8697 8.77146 20.0695C8.55705 19.2693 9.03192 18.4468 9.83212 18.2324C10.6323 18.018 11.4548 18.4929 11.6692 19.2931C11.8836 20.0933 11.4088 20.9158 10.6086 21.1302Z" fill="currentColor"/>
<path d="M22.4226 11.728C21.9904 11.8395 21.7437 11.9707 21.3906 12.199C21.3558 12.2214 21.3272 12.2525 21.3075 12.2889C19.7561 15.1373 18.2711 17.6371 16.6034 20.3853C16.5875 20.4115 16.5818 20.4433 16.5873 20.4735C16.7724 21.4988 16.7016 22.0271 16.1925 22.7228C16.1195 22.8226 16.2142 22.9659 16.333 22.9317C19.1779 22.1112 21.3701 21.4391 24.6227 20.3601C26.1543 19.852 26.9991 18.2162 26.5382 16.6697L25.6126 13.5638C25.1544 12.0262 23.9762 11.3273 22.4226 11.728Z" fill="currentColor"/>
<path d="M16.329 18.5326C16.2713 18.6286 16.1259 18.6055 16.1 18.4965C14.9992 13.8624 14.0645 10.3294 12.7892 6.0039C12.7791 5.9697 12.7843 5.93199 12.8032 5.90169C12.9965 5.59021 12.7496 5.98206 12.9989 5.58642C13.8526 4.23154 15.6267 3.80207 17.0136 4.60279L19.8317 6.22985C21.2272 7.03552 21.7382 8.80156 20.9775 10.222C19.1475 13.6396 18.1223 15.5478 16.329 18.5326Z" fill="currentColor"/>
<path fill-rule="evenodd" clip-rule="evenodd" d="M4.36888 4.14554C2.81881 4.56088 1.86803 6.12312 2.2258 7.68748C3.46514 13.1065 4.53247 17.0847 6.25072 22.6891C6.72193 24.226 8.3289 25.1088 9.88167 24.6928L13.0021 23.8567C14.5618 23.4387 15.5123 21.8599 15.1417 20.2883C13.8237 14.6996 12.7595 10.7275 11.1338 5.32557C10.6687 3.78001 9.05676 2.88943 7.49772 3.30717L4.36888 4.14554ZM10.6032 21.11C11.4034 20.8956 11.8782 20.0731 11.6638 19.2729C11.4494 18.4727 10.6269 17.9978 9.82672 18.2123C9.02652 18.4267 8.55165 19.2492 8.76606 20.0494C8.98047 20.8496 9.80298 21.3245 10.6032 21.11Z" fill="currentColor"/>
</svg>
