<svg width="18" height="18" viewBox="0 0 18 18" xmlns="http://www.w3.org/2000/svg">
<path d="M11.2299 5.99489L10.2978 3.12574C9.8848 1.85434 8.0806 1.87018 7.68997 3.14863L6.82721 5.97228C6.69024 6.42056 6.33317 6.76742 5.88111 6.89134L2.99869 7.68143C1.65766 8.04902 1.65766 9.95097 2.99869 10.3186L5.88111 11.1087C6.33317 11.2326 6.69024 11.5794 6.82721 12.0277L7.68997 14.8514C8.0806 16.1298 9.8848 16.1457 10.2978 14.8743L11.2299 12.0051C11.3714 11.5695 11.7216 11.2337 12.1627 11.1106L15.0073 10.3169C16.3403 9.94495 16.3403 8.05505 15.0073 7.6831L12.1627 6.88939C11.7216 6.76629 11.3714 6.43048 11.2299 5.99489Z"/>
</svg>
