<svg width="497" height="497" viewBox="0 0 497 497" fill="none" xmlns="http://www.w3.org/2000/svg">
<g clip-path="url(#clip0_2705_101)">
<rect width="497" height="497" fill="#FF2602" style="fill:#FF2602;fill:color(display-p3 1.0000 0.1490 0.0078);fill-opacity:1;"/>
<path d="M156.806 505.127C156.806 505.127 171.915 456.526 215.946 439.664C234.963 432.384 268.882 430.242 291.372 442.144C304.73 449.216 312.151 461.981 316.109 470.144C321.506 480.984 324.06 493.024 323.53 505.127H156.806Z" fill="#BCBCBC" style="fill:#BCBCBC;fill:color(display-p3 0.7373 0.7373 0.7373);fill-opacity:1;"/>
<path d="M264.073 432.89C291.946 432.89 326.291 453.719 330.862 493.393C332 503.203 332.138 506 332.138 506H321.63C321.63 506 324.747 444.703 264.736 435.528C245.857 432.642 180.138 446.439 159.191 506H146.822C146.822 506 157.875 450.575 226.642 428.258C250.943 421.751 264.073 432.89 264.073 432.89Z" fill="#070610" style="fill:#070610;fill:color(display-p3 0.0275 0.0235 0.0627);fill-opacity:1;"/>
<path d="M295.409 506C295.409 506 294.914 494.832 296.151 489.753C297.388 484.675 295.29 481.818 293.183 481.441C291.075 481.065 288.364 482.195 287.375 486.53C286.165 492.949 285.542 499.467 285.515 506H295.409Z" fill="#070610" style="fill:#070610;fill:color(display-p3 0.0275 0.0235 0.0627);fill-opacity:1;"/>
<path d="M132.95 228.007C132.95 228.007 138.224 256.771 137.897 270.488C137.897 270.488 135.592 295.116 130.971 313.307C126.35 331.497 122.066 368.513 127.34 384.72C132.613 400.927 154.391 430.346 194.959 424.395C235.527 418.444 237.17 416.787 236.843 426.706C236.517 436.624 232.458 442.722 228.5 449C228.5 449 244.759 455.143 251.358 450.511L257.948 445.879C257.948 445.879 258.344 434.333 261.253 427.37C263.232 422.61 265.864 422.411 265.864 422.411C265.864 422.411 300.169 414.139 319.295 396.95C334.661 383.143 350.304 356.948 353.273 319.912C353.273 319.912 365.473 314.298 367.125 308.347L368.768 302.396C368.768 302.396 369.104 296.108 363.494 297.1C357.884 298.091 352.61 302.059 352.61 302.059C352.61 302.059 359.536 243.876 350.957 214.775C346.01 197.983 337.323 179.792 311.379 162.544C276.095 139.067 190.012 141.715 143.834 179.068C126.37 193.202 132.95 228.007 132.95 228.007Z" fill="#C3915E" style="fill:#C3915E;fill:color(display-p3 0.7647 0.5686 0.3686);fill-opacity:1;"/>
<path d="M136.947 281.319C136.947 281.319 148.682 274.029 151.611 266.778C163.168 272.73 182.185 272.73 184.876 266.778C187.568 260.827 184.966 255.689 181.285 253.458C184.59 254.638 186.816 252.654 187.221 250.115C190.873 253.091 208.554 250.988 212.819 243.787C215.975 247.259 232.489 246.049 237.377 239.512C241.454 246.267 266.002 247.388 273.987 237.836C273.987 237.836 290.155 224.833 276.807 199.322C263.459 173.811 151.937 176.846 136.947 204.083C121.957 231.319 119.364 257.197 136.947 281.319Z" fill="#AD723B" style="fill:#AD723B;fill:color(display-p3 0.6784 0.4471 0.2314);fill-opacity:1;"/>
<path d="M245.481 452.643C245.481 452.643 243.68 436.049 253.852 424.821C264.736 412.82 288.483 411.332 302.039 387.329C302.039 387.329 297.586 374.177 306.491 362.275C306.491 362.275 294.43 340.831 319.354 330.535L353.857 324.058C353.857 324.058 352.174 350.918 336.175 375.923C330.08 386.893 316.386 406.958 274.462 420.299C274.462 420.299 262.094 423.532 260.818 430.495C259.998 434.852 259.891 439.314 260.501 443.706C260.558 444.089 260.518 444.48 260.383 444.843C260.248 445.206 260.023 445.528 259.729 445.779C255.661 449.279 250.748 451.645 245.481 452.643V452.643Z" fill="#AD723B" style="fill:#AD723B;fill:color(display-p3 0.6784 0.4471 0.2314);fill-opacity:1;"/>
<path d="M225 375.271C225.4 363.271 215.833 357.604 211 356.271C206 356.271 195 359.271 196 375.271C197 391.271 205 393.271 211 393.271C217 393.271 224.5 390.271 225 375.271Z" fill="#F96A6A" style="fill:#F96A6A;fill:color(display-p3 0.9750 0.4144 0.4144);fill-opacity:1;"/>
<path d="M215.5 366.771L216.5 358.771L210.5 356.771L204 357.271L203.5 365.771L215.5 366.771Z" fill="white" style="fill:white;fill-opacity:1;"/>
<path fill-rule="evenodd" clip-rule="evenodd" d="M209 353.271C221 353.271 228 362.462 228 371.271C228 386.271 224 396.271 209 396.271C194 396.271 193.5 380.438 193 373.771C192.333 366.271 197 353.271 209 353.271ZM223 376.271C224 367.771 219 357.771 210 357.771C199.6 357.771 197.333 368.938 197.5 374.771C197.167 381.604 199.2 392.171 210 391.771C223.5 391.271 222 384.771 223 376.271Z" fill="black" style="fill:black;fill-opacity:1;"/>
<path d="M216.371 300.164C216.371 297.556 216.529 296.197 218.943 296.068C221.358 295.939 221.259 298.925 221.259 298.925C221.259 298.925 220.873 313.961 215.322 327.689C215.322 327.689 212.482 335.068 210.434 335.068C209.409 335.314 208.33 335.194 207.384 334.728C206.438 334.263 205.683 333.482 205.249 332.519C205.249 332.519 203.943 328.998 202.558 328.899C200.015 328.71 198.402 333.471 198.046 337.091C197.828 339.343 196.898 340.771 194.603 340.771C192.307 340.771 191.456 339.392 191.703 336.982C192.693 330.853 196.928 323.88 199.866 320.934C200.152 320.642 200.492 320.409 200.867 320.249C201.242 320.089 201.645 320.005 202.053 320.002C205.12 320.002 206.011 322.65 206.427 324.852C207.159 328.68 208.455 328.403 208.455 328.403C208.455 328.403 209.029 328.601 209.82 327.004C213.224 320.121 216.371 308.536 216.371 300.164Z" fill="#070610" style="fill:#070610;fill:color(display-p3 0.0275 0.0235 0.0627);fill-opacity:1;"/>
<path d="M263.09 305.961C263.51 304.791 264.24 304.121 265.22 304.491C266.53 304.991 265.78 307.391 267.09 307.861C270.01 308.911 270.21 305.971 271.2 305.861C272.64 305.671 272.8 307.461 272.51 309.341C272.11 311.931 271.58 312.491 270.69 313.531C269.16 315.311 267.56 315.531 265.44 315.031C264.44 314.801 262.81 313.841 262.63 311.031C262.479 309.327 262.635 307.61 263.09 305.961V305.961Z" fill="#070610" style="fill:#070610;fill:color(display-p3 0.0275 0.0235 0.0627);fill-opacity:1;"/>
<path d="M167.38 300.391C169.81 300.391 169.88 298.391 170.63 298.391C171.38 298.391 171.85 299.281 172.04 300.301C172.518 302.138 172.297 304.087 171.42 305.771C171.42 305.771 168.75 308.941 166.5 308.581C166.067 308.558 165.642 308.449 165.252 308.259C164.862 308.068 164.514 307.801 164.229 307.474C163.945 307.146 163.729 306.765 163.595 306.352C163.461 305.939 163.412 305.503 163.45 305.071C163.52 302.981 164.06 303.731 164.08 301.521C164.08 299.521 164.3 298.771 165.29 298.601C166.56 298.391 166.19 300.391 167.38 300.391Z" fill="#070610" style="fill:#070610;fill:color(display-p3 0.0275 0.0235 0.0627);fill-opacity:1;"/>
<path d="M253.139 258.951C253.08 264.902 259.076 269.246 269.564 269.494C280.053 269.742 285.069 268.334 290.343 263.464C295.617 258.594 279.934 254.805 270.712 255.122C261.49 255.439 253.169 255.856 253.139 258.951Z" fill="#AD723B" style="fill:#AD723B;fill:color(display-p3 0.6784 0.4471 0.2314);fill-opacity:1;"/>
<path d="M255.158 257.84C255.158 257.84 256.325 252.553 271.335 253.049C286.345 253.545 287.82 257.84 288.977 258.832C290.135 259.823 290.293 261.48 287.493 262.303C287.493 262.303 266.15 264.713 258.136 261.143C254.267 259.417 255.158 257.84 255.158 257.84Z" fill="#935C0A" style="fill:#935C0A;fill:color(display-p3 0.5765 0.3608 0.0392);fill-opacity:1;"/>
<path d="M292.569 259.01C292.312 257.453 292.312 255.38 287.305 253.476C282.299 251.571 275.828 251.313 268.456 251.571C263.997 251.748 259.581 252.522 255.326 253.872C255.326 253.872 251.566 257.076 253.901 260.706C256.236 264.336 272.196 264.971 272.196 264.971C272.196 264.971 284.456 265.556 288.859 264.168C292.332 263.027 292.826 260.567 292.569 259.01ZM283.763 260.746C283.763 260.746 266.942 261.887 259.027 259.704C255.276 258.713 256.523 256.243 260.58 255.549C263.935 255.199 267.309 255.056 270.682 255.122C270.682 255.122 283.219 254.378 285.791 258.931C286.959 260.915 283.763 260.746 283.763 260.746Z" fill="#070610" style="fill:#070610;fill:color(display-p3 0.0275 0.0235 0.0627);fill-opacity:1;"/>
<path d="M170.737 252.66C175.684 252.66 178.821 252.928 180.137 255.437C181.453 257.947 181.245 260.893 178.326 261.389C175.002 261.984 171.806 262.053 164.612 261.101C161.337 260.655 158.013 260.665 155.836 261.835C153.659 263.005 152.185 260.843 154.658 257.996C156.994 255.309 165.79 252.66 170.737 252.66Z" fill="#935C0A" style="fill:#935C0A;fill:color(display-p3 0.5765 0.3608 0.0392);fill-opacity:1;"/>
<path d="M184.213 255.438C184.213 255.438 182.986 250.349 172.34 250.23C161.693 250.111 151.165 255.438 151.165 255.438C151.165 255.438 146.713 258.78 148.326 262.004C149.938 265.227 155.747 264.315 155.747 264.315C158.51 263.714 161.321 263.362 164.147 263.263C166.967 263.343 174.289 264.116 174.289 264.116C177.134 264.198 179.938 263.417 182.333 261.875C182.896 261.594 183.394 261.199 183.797 260.716C184.2 260.233 184.499 259.672 184.675 259.068C184.852 258.463 184.902 257.829 184.822 257.204C184.743 256.58 184.536 255.978 184.213 255.438ZM177.05 259.891C174.284 260.548 171.404 260.548 168.639 259.891C164.305 258.78 158.745 259.772 156.39 260.387C154.035 261.002 153.54 259.028 154.53 258.284C155.519 257.54 159.477 254.436 169.995 254.436C169.995 254.436 177.544 254.356 178.771 256.677C180.315 259.554 177.05 259.891 177.05 259.891Z" fill="#070610" style="fill:#070610;fill:color(display-p3 0.0275 0.0235 0.0627);fill-opacity:1;"/>
<path d="M114.476 360.747C114.476 360.747 98.6451 354.469 98.9716 341.902C98.9716 341.902 99.9611 330.337 108.213 329.345C108.213 329.345 87.761 329.672 87.761 315.786C87.761 315.786 87.761 303.219 98.9716 303.557C98.9716 303.557 80.1719 295.622 80.1719 282.063C80.1719 269.496 87.4345 261.234 97.3291 261.234C97.3291 261.234 82.1508 252.634 82.1508 240.732C82.1508 240.732 81.1613 230.486 86.7716 225.527C86.7716 225.527 77.8664 205.025 85.1192 188.501C85.1192 188.501 87.761 177.918 105.571 174.942C105.571 174.942 99.6345 158.745 108.866 148.162C108.866 148.162 113.813 140.227 126.676 139.562C126.676 139.562 128.655 123.871 142.508 119.725C142.508 119.725 157.904 118.733 169.441 123.693C169.441 123.693 177.802 101.227 195.612 94.6114C195.612 94.6114 214.61 87.6683 228.462 100.176C228.462 100.176 230.57 79.0689 247.885 79.0689C265.201 79.0689 272.315 94.0262 272.315 94.0262C272.315 94.0262 277.322 81.003 293.895 86.0119C311.379 91.3085 311.705 115.113 311.705 115.113C311.705 115.113 325.558 100.563 344.694 105.849C352.718 108.071 355.905 119.408 353.599 128.007C353.599 128.007 361.178 119.735 368.441 123.048C375.704 126.361 389.873 138.581 381.304 159.082C381.304 159.082 399.767 156.771 408.346 171.312C408.346 171.312 422.198 190.822 405.378 205.7C405.378 205.7 426.483 204.043 430.441 229.832C430.441 229.832 432.093 250.333 411.641 256.949C411.641 256.949 428.798 258.268 428.462 274.138C428.462 274.138 430.737 290.008 409.959 296.951C409.959 296.951 421.496 305.878 419.19 317.453C415.233 337.29 389.833 335.306 389.833 335.306C389.833 335.306 403.686 339.928 401.707 348.2C401.707 348.2 398.085 358.119 384.559 356.135C384.559 356.135 393.464 365.062 385.549 372.332C377.633 379.602 368.065 372.332 368.065 372.332C368.065 372.332 373.388 388.331 362.771 392.636C352.362 396.861 343.418 388.847 341.775 386.536C340.133 384.225 345.307 397.129 331.128 398.438C316.95 399.747 315.624 385.544 315.624 385.544C315.624 385.544 316.613 372.322 328.16 374.97C328.16 374.97 319.581 371.995 320.244 364.06C320.907 356.125 329.812 353.15 329.812 353.15C329.812 353.15 317.939 358.764 316.287 349.182C314.634 339.601 324.529 329.672 324.529 329.672C324.529 329.672 310.676 331.329 309.36 317.77C309.36 317.77 309.034 302.892 324.865 297.268C324.865 297.268 308.371 294.957 308.697 276.439C309.024 257.921 325.192 251.98 325.192 251.98C325.192 251.98 315.96 258.923 306.719 251.315C297.477 243.708 301.445 230.814 301.445 230.814C301.445 230.814 297.813 242.478 282.645 238.748C267.477 235.019 271.434 220.895 271.434 220.895C271.434 220.895 263.182 235.773 250.656 234.126C238.129 232.48 237.13 217.592 237.13 217.592C237.13 217.592 232.183 226.191 225.583 225.527C225.583 225.527 213.056 225.854 213.709 207.673C213.709 207.673 213.383 224.862 196.235 228.175C179.088 231.488 177.762 214.616 177.762 214.616C177.762 214.616 179.741 229.167 163.247 235.446C146.753 241.724 144.447 227.183 144.447 227.183C144.447 227.183 149.068 237.757 140.489 249.996C131.911 262.236 132.247 256.939 132.247 256.939C133.919 263.858 134.477 271 133.9 278.096C132.91 289.671 126.31 306.195 123.015 325.377C121.023 336.945 120.247 348.69 120.7 360.42L114.476 360.747Z" fill="#935C0A" style="fill:#935C0A;fill:color(display-p3 0.5765 0.3608 0.0392);fill-opacity:1;"/>
<path d="M330.228 358.932C334.918 357.315 334.611 354.528 332.326 352.921C330.04 351.315 326.211 352.297 325.281 353.665C324.351 355.034 322.174 354.766 320.887 352.544C316.811 345.492 323.421 335.99 327.754 334.572C333.691 332.588 331.405 329.176 331.405 329.176C331.039 328.579 330.497 328.109 329.854 327.832C329.211 327.555 328.498 327.484 327.814 327.629C326.023 328.055 325.211 328.809 323.856 328.809C319.156 328.809 314.951 324.465 315.079 318.454C315.208 312.444 320.7 303.447 325.894 302.644C331.089 301.841 330.317 299.123 330.317 299.123C330.317 299.123 330.94 297.07 325.894 296.008C316.524 294.025 313.219 290.246 312.853 278.343C312.487 266.441 317.919 259.062 323.549 257.723C332.692 255.551 331.029 249.887 330.416 249.203C329.87 248.839 329.205 248.701 328.559 248.818C327.914 248.934 327.338 249.296 326.953 249.827C326.27 251.067 323.213 255.679 314.248 252.634C300.04 247.824 306.234 232.797 307.223 230.119C308.213 227.441 304.195 227.699 304.195 227.699C304.195 227.699 299.861 227.382 299.179 229.365C298.318 231.895 293.865 240.464 285.208 238.729C274.482 236.586 274.442 226.707 274.749 223.355C275.056 220.002 274.442 219.705 272.77 219.705C271.098 219.705 269.376 219.635 268.694 222.492C266.151 233.154 251.813 233.591 251.813 233.591C238.456 233.273 239.188 216.997 239.752 212.762C240.435 207.673 240.435 207.713 239.495 207.802C238.02 207.892 236.417 211.175 236.417 213.287C236.517 215.345 236.023 217.387 234.993 219.169C233.815 221.153 231.341 225.428 226.453 225.249C221.566 225.071 218.973 220.29 218.914 215.45C218.854 211.234 219.102 206.523 219.102 206.523C219.033 205.224 218.231 203.676 216.935 204.232C215.639 204.787 214.461 205.353 212.601 206.344C212.067 206.661 211.64 207.13 211.375 207.693C211.111 208.255 211.021 208.884 211.117 209.498L211.305 212.851C211.364 216.322 208.228 220.478 205.982 222.522C199.184 228.721 192.208 228.661 188.814 225.19C185.421 221.718 184.777 220.161 183.867 216.322C183.343 214.15 181.888 213.595 181.087 213.902C180.285 214.21 177.376 215.509 177.376 215.509C177.106 215.655 176.869 215.856 176.68 216.099C176.492 216.341 176.355 216.62 176.278 216.918C176.202 217.216 176.188 217.527 176.238 217.831C176.287 218.134 176.398 218.425 176.565 218.683C177.287 220.111 175.506 223.642 174.774 224.694C172.657 227.888 166.186 234.176 160.862 235.059C155.331 235.981 152.284 230.099 150.799 227.124C149.315 224.148 146.02 225.309 143.052 227.124C140.084 228.939 140.905 231.091 140.905 231.091C142.884 237.32 140.697 245.523 138.599 249.282C133.326 258.715 126.726 256.225 124.747 255.679C122.768 255.134 121.284 257.217 123.926 260.351C126.568 263.485 133.237 262.087 133.237 262.087C133.237 262.087 128.042 292.428 123.431 309.785C118.82 327.143 115.842 349.123 115.842 360.37C115.842 371.618 117.989 402.187 146.347 418.89C174.705 435.593 199.946 432.607 208.683 431.12C208.683 431.12 221.219 428.63 226.335 425.664C226.335 425.664 229.095 423.8 229.303 427.648C229.63 433.847 227.631 440.502 223.03 447.117C223.03 447.117 218.419 454.487 240.514 454.487C249.092 454.487 254.534 453.406 264.587 445.957C264.587 445.957 266.566 445.292 266.071 440.333C265.577 435.374 265.408 429.959 266.151 426.488C266.151 426.488 303.404 418.781 321.204 400.779L321.58 393.994C315.98 385.692 325.231 379.295 326.29 379.85C327.349 380.406 328.022 380.535 330.248 380.287C332.474 380.039 332.721 378.928 332.286 377.559C331.851 376.19 330 374.703 326.478 373.284C322.955 371.866 326.458 360.231 330.228 358.932ZM320.225 359.864C316.831 362.275 316.514 368.93 319.552 372.094C320.482 373.086 320.422 374.078 319.552 374.326C311.161 376.567 310.122 386 315.01 394.242C316.643 396.99 315.752 397.634 315.752 397.634C299.673 413.256 277.787 419.683 267.328 421.727C264.261 422.332 262.143 423.591 260.926 428.214C259.422 433.927 259.027 441.236 259.027 441.236C247.153 451.154 230.411 448.595 232.39 446.116C236.998 440.342 237.401 434.046 238.268 427.499C239.445 418.632 232.895 414.05 222.713 417.7C201.014 425.466 175.665 425.387 160.654 418.632C138.629 408.714 128.606 393.627 126.518 372.511C124.43 351.394 125.143 344.302 132.455 308.952C139.767 273.602 137.649 258.655 137.649 258.655C148.167 254.688 149.464 237.925 149.464 237.925C163.623 248.469 181.374 225.656 181.374 225.656C189.349 236.993 206.417 232.857 214.155 221.123C215.51 229.623 232.954 234.146 237.278 220.568C235.24 236.745 255.771 244.868 269.188 229.623C269.861 228.85 270.494 229.246 270.672 230.179C273.295 244.124 288.216 246.951 296.794 242.081C299.357 240.613 299.307 242.141 299.307 242.141C298.239 252.793 313.1 257.018 316.277 256.721C317.078 256.661 317.266 257.266 316.87 257.495C310.835 261.462 307.668 267.969 306.748 274.743C305.432 284.463 309.885 294.253 316.069 297.328C319.314 298.935 317.405 300.303 317.405 300.303C310.152 306.175 307.837 313.981 307.757 317.75C307.678 321.519 310.063 331.051 316.989 331.884C319.453 332.172 318.147 333.779 318.147 333.779C312.358 341.158 312.873 355.272 318.641 357.92C321.204 359.051 321.343 359.071 320.225 359.864Z" fill="#070610" style="fill:#070610;fill:color(display-p3 0.0275 0.0235 0.0627);fill-opacity:1;"/>
<path d="M117.781 366.133C98.7639 364.824 85.0302 349.837 94.5488 332.568C82.0619 328.551 76.9859 313.307 86.8805 305.243C74.8784 299.787 65.4785 278.839 86.2572 258.883C74.0077 250.948 75.5017 234.087 83.6648 226.271C75.7491 220.072 74.6409 180.149 100.238 175.686C94.4301 156.464 112.359 136.746 123.491 139.483C126.093 125.359 145.259 108.735 166.403 120.638C168.679 121.917 169.263 122.165 170.243 118.902C172.964 109.846 198.937 77.9977 223.297 95.7223C227.631 98.2019 228.057 97.706 228.126 94.1055C228.373 81.8362 256.355 67.5733 270.425 89.1462C272.533 92.3698 272.77 91.8738 274.878 89.2752C276.985 86.6765 302.454 70.3009 314.951 108.616C338.075 95.9603 357.992 105.76 357.992 122.998C376.664 116.174 392.376 138.243 388.537 157.952C411.671 158.209 426.513 181.389 416.004 205.065C440.741 215.112 445.312 247.1 420.576 256.642C440.741 267.185 436.823 291.714 418.221 301.037C416.737 301.771 417.142 302.337 417.607 302.644C423.544 306.611 432.796 337.3 402.766 338.966C398.313 339.224 398.689 340.712 400.045 341.942C401.4 343.171 413.274 357.811 392.871 360.42C399.678 375.665 382.976 382.985 375.931 381.745C377.782 390.176 364.671 401.215 347.475 395.879C345.258 405.034 323.985 404.31 318.167 398.854C317.051 397.909 316.153 396.732 315.535 395.405C314.917 394.078 314.592 392.632 314.585 391.168L319.78 389.035C319.78 389.035 320.037 397.208 328.784 397.099C337.689 396.98 339.48 393.379 338.965 388.172C338.698 385.445 340.677 386.059 340.677 386.059C340.677 386.059 343.517 386.555 344.635 385.325C345.753 384.096 347.108 384.334 347.603 385.564C348.098 386.793 351.69 394.49 361.327 389.908C370.964 385.326 366.65 378.769 365.661 376.915C364.671 375.06 364.79 372.947 365.661 372.689C367.249 372.578 368.737 371.87 369.826 370.705C371.202 369.079 372.557 372.967 373.854 374.385C374.972 375.585 383.748 375.109 383.748 365.548C383.748 358.843 380.285 355.748 380.285 355.748C380.285 355.748 397.967 355.252 398.224 348.924C398.481 342.596 391.891 341.584 389.685 340.989C388.643 340.734 387.738 340.09 387.153 339.189C386.568 338.288 386.348 337.198 386.537 336.14C386.726 335.082 387.311 334.136 388.171 333.494C389.032 332.853 390.104 332.564 391.169 332.688C395.236 333.074 415.282 332.073 415.282 315.826C415.282 304.419 408.485 303.299 408.485 303.299C403.785 301.94 405.269 293.578 410.147 293.658C416.648 293.757 424.939 284.949 424.682 274.297C424.682 274.297 426.216 257.197 410.216 260.282C403.785 261.522 405.021 257.435 407.366 255.322C409.712 253.21 435.606 237.261 422.96 220.359C413.679 207.961 406.09 211.433 406.09 211.433C401.806 212.811 398.877 205.481 403.171 202.268C408.356 198.429 419.616 167.186 387.706 164.706C385.598 164.537 384.797 165.222 384.114 166.69C383.431 168.158 381.403 167.404 381.274 166.015C381.176 164.904 380.75 164.666 379.78 165.024C378.811 165.381 375.338 164.498 379.167 158.676C383.956 151.405 377.445 127.462 364.82 127.184C359.259 127.065 354.272 131.975 351.957 132.233C350.324 132.421 348.464 131.439 349.612 124.704C350.354 120.36 347.415 107.922 330.317 109.827C323.638 110.57 318.107 111.959 314.733 116.77C313.12 119.061 311.696 119.606 309.41 119.497C306.264 119.348 304.72 116.77 305.215 111.066C305.709 105.363 299.031 90.3662 287.404 90.3662C281.705 90.3662 275.531 94.9486 271.692 99.164C267.981 93.5798 258.413 77.7597 241.513 85.4069C231.342 89.8901 230.718 100.424 230.847 102.536C230.976 104.649 228.621 105.641 226.266 103.776C223.911 101.911 198.442 79.4756 175.566 120.638C171.469 128.007 170.223 130.12 164.682 126.47C160.348 123.613 134.464 117.156 130.911 139.86C129.922 146.178 128.438 146.803 120.423 146.555C114.615 146.377 102.346 158.08 110.261 178.91C89.9775 183.244 85.2083 190.812 85.525 206.186C85.7624 218.584 87.2466 223.583 90.215 225.894C90.215 225.894 91.3331 226.023 89.4828 229.127C87.6325 232.232 79.5289 249.49 103.573 260.609C105.186 261.363 105.433 264.834 102.465 264.834C99.4961 264.834 83.5461 270.657 83.7835 283.551C84.021 296.445 95.5383 302.148 100.604 302.396C105.67 302.644 103.949 307.98 100.733 307.851C97.5172 307.722 91.8278 311.452 91.6992 317.145C91.5706 322.838 94.5488 327.163 102.959 327.441C108.767 327.629 112.567 330.059 113.23 331.527C114.338 334.007 109.391 332.281 107.036 333.511C104.681 334.741 97.0027 353.665 116.475 359.894L117.781 366.133Z" fill="#060500" style="fill:#060500;fill:color(display-p3 0.0235 0.0196 0.0000);fill-opacity:1;"/>
<path d="M203.5 367.5C201 366 200.667 363 201 361.5L201.5 359.5L205 357.5C204.834 359.167 204.5 362.6 204.5 363C204.5 364 204.99 364.52 206 365C207.715 365.816 213.115 366.578 214.5 364.5C215.397 363.155 215.5 360 215.5 358.5L219 360C218.754 361.599 218.776 363.775 218 365.5C217.494 366.474 215.816 368.211 215 368.5C212.428 369.052 205.627 368.776 203.5 367.5Z" fill="black" style="fill:black;fill-opacity:1;"/>
<path d="M266.928 351.526C283.634 351.526 297.178 341.872 297.178 329.962C297.178 318.053 283.634 308.399 266.928 308.399C250.221 308.399 236.678 318.053 236.678 329.962C236.678 341.872 250.221 351.526 266.928 351.526Z" fill="url(#paint0_radial_2705_101)" style=""/>
<path d="M181.244 334.212C183.683 322.916 174.658 311.371 161.086 308.427C147.515 305.483 134.536 312.255 132.097 323.552C129.659 334.849 138.684 346.393 152.255 349.337C165.827 352.281 178.805 345.509 181.244 334.212Z" fill="url(#paint1_radial_2705_101)" style=""/>
<path d="M364.692 278.436C359.674 278.196 353.031 278.973 350.02 281.61C351.084 272.738 347.32 272.191 344.309 272.019C341.298 271.846 341.549 274.695 341.549 274.695C341.549 274.695 348.825 285.006 345.564 324.572C348.563 323.31 351.162 321.316 353.099 318.791C355.037 316.265 356.246 313.297 356.603 310.184C356.603 310.184 361.371 307.834 364.883 307.93C368.396 308.026 379.435 305.148 379.184 294.118C378.934 283.087 369.71 278.675 364.692 278.436ZM359.925 302.712C356.413 304.333 356.353 302.53 356.413 300.679C356.473 298.827 356.413 294.319 355.038 292.823C354.641 292.496 354.383 292.041 354.313 291.544C354.243 291.048 354.365 290.544 354.656 290.128C354.656 290.128 369.088 283.107 369.52 289.648C369.951 296.19 363.438 301.091 359.925 302.712Z" fill="#070610" style="fill:#070610;fill:color(display-p3 0.0275 0.0235 0.0627);fill-opacity:1;"/>
<path d="M353.997 290.305C353.714 290.748 353.595 291.284 353.663 291.811C353.732 292.339 353.982 292.823 354.366 293.171C355.7 294.761 355.758 299.544 355.7 301.522C355.642 303.5 355.7 305.407 359.107 303.684C362.514 301.961 368.841 296.74 368.413 289.795C367.985 282.851 353.997 290.305 353.997 290.305Z" fill="#C3915E" style="fill:#C3915E;fill:color(display-p3 0.7647 0.5686 0.3686);fill-opacity:1;"/>
<path d="M379.685 365.41C386.049 360.939 394.83 349.553 400.087 338.644C412.043 313.835 415.229 272.651 388.786 255.945C368.968 243.65 342.728 255.682 332.434 276.616C325.489 290.951 322.899 307.253 323.003 321.296C323.055 328.331 323.783 334.88 325.02 340.415C326.24 345.88 328.018 350.636 330.337 353.855L330.426 353.978L330.524 354.092C336.861 361.44 347.887 369.972 360.346 370.915C366.664 371.392 373.288 369.905 379.685 365.41Z" fill="#D9D9D9" style="fill:#D9D9D9;fill:color(display-p3 0.8510 0.8510 0.8510);fill-opacity:1;"/>
<path d="M382.5 360.5C392.208 348.843 398.5 339.5 402.5 328C378.022 347.993 341.487 308.376 330 292L325.5 320L329 345.5L337 358.5C345.988 364.375 351.219 367.279 362.5 368.5C370.394 367.934 374.778 366.334 382.5 360.5Z" fill="#C4C4C4" style="fill:#C4C4C4;fill:color(display-p3 0.7675 0.7675 0.7675);fill-opacity:1;"/>
<path d="M388.786 255.945C415.229 272.651 412.043 313.835 400.087 338.644C394.83 349.553 386.049 360.939 379.685 365.41C373.288 369.905 366.664 371.392 360.346 370.915C347.887 369.972 337 363.5 330.524 354.092L330.426 353.978L330.337 353.855C328.018 350.636 326.24 345.88 325.02 340.415C323.783 334.88 323.055 328.331 323.003 321.296C322.899 307.253 325.489 290.951 332.434 276.616C342.728 255.682 368.968 243.65 388.786 255.945ZM385.731 262.175C341.5 234.5 317.5 322.5 337 353.855C342.5 361.5 349.5 365 360 366.5C367.152 367.522 372.5 366 378.5 361.5C411.5 331.5 414.5 285.5 385.731 262.175Z" fill="#070610" style="fill:#070610;fill:color(display-p3 0.0275 0.0235 0.0627);fill-opacity:1;"/>
<ellipse cx="375.924" cy="318.633" rx="23.6644" ry="34.6366" transform="rotate(15.2136 375.924 318.633)" fill="url(#paint2_linear_2705_101)" style=""/>
<path d="M384.882 285.692C390.982 287.351 395.574 292.486 398.026 299.554C400.476 306.619 400.764 315.567 398.277 324.712C395.79 333.857 391.01 341.426 385.319 346.277C379.626 351.13 373.065 353.232 366.966 351.573C360.866 349.914 356.274 344.779 353.823 337.711C351.372 330.646 351.085 321.699 353.572 312.554C356.059 303.409 360.838 295.84 366.529 290.988C372.222 286.135 378.782 284.034 384.882 285.692Z" stroke="black" stroke-opacity="0.04" style="stroke:black;stroke-opacity:0.04;"/>
<path d="M386.5 275.5C382.693 281.02 375.137 280.487 375.5 275.5C377.5 248 371.854 220.795 367.5 201.5C366.239 195.91 373.001 192.108 379.5 201.5C388.613 214.67 392.891 266.234 386.5 275.5Z" fill="#CCCCCC" style="fill:#CCCCCC;fill:color(display-p3 0.8000 0.8000 0.8000);fill-opacity:1;"/>
<path d="M370 194.5C371.5 194 374 193.5 376.231 195.489C396.517 216.299 392.652 266.41 388.482 275.731C387.431 279.87 383.968 282.227 380.862 282C379.31 281.887 377.763 281.341 376.596 280.364C375.4 279.362 373.873 277.19 374.003 275.392L374.176 272.825C375.777 246.728 372.876 220.551 366.418 202.893C365.105 199.363 366.588 196.206 370 194.5ZM375 198C373.834 196.701 372.21 195.905 370.5 196.5C367.68 197.481 367.5 200.5 368.5 202.5C374.752 212.277 378.559 239.27 377.169 273.017L376.996 275.609C376.945 276.304 377.222 276.887 377.796 277.368C378.4 277.874 379.317 278.236 380.354 278.311C382.426 278.463 384.447 277.491 385.046 275.131C388.158 268.259 392.607 217.613 375 198Z" fill="black" style="fill:black;fill-opacity:1;"/>
<path d="M373.5 192L370.5 208L367.5 212L364 210.5L359 196L368.5 184L373.5 192Z" fill="#935C0A" style="fill:#935C0A;fill:color(display-p3 0.5765 0.3608 0.0392);fill-opacity:1;"/>
<path d="M334.877 174.982C334.304 174.208 334.419 173.113 335.216 172.574C343.088 167.247 356.425 169.184 355.184 180.579C376.636 175.282 380.779 199.6 370.874 211.059C370.364 211.65 369.53 211.819 368.802 211.538V211.538C367.326 210.968 367.022 208.867 367.95 207.586C374.451 198.608 371.377 178.934 352.916 187.06L351.571 187.985C349.945 189.102 347.855 187.441 348.576 185.606L349.173 184.086C352.702 172.691 345.867 169.817 337.532 175.392C336.671 175.968 335.493 175.815 334.877 174.982V174.982Z" fill="black" style="fill:black;fill-opacity:1;"/>
</g>
<defs>
<radialGradient id="paint0_radial_2705_101" cx="0" cy="0" r="1" gradientUnits="userSpaceOnUse" gradientTransform="translate(268.011 330.88) scale(28.2849 23.4547)">
<stop stop-color="#E86A58" stop-opacity="0.18" style="stop-color:#E86A58;stop-color:color(display-p3 0.9098 0.4157 0.3451);stop-opacity:0.18;"/>
<stop offset="0.3" stop-color="#E86A58" stop-opacity="0.16" style="stop-color:#E86A58;stop-color:color(display-p3 0.9098 0.4157 0.3451);stop-opacity:0.16;"/>
<stop offset="0.63" stop-color="#E86A58" stop-opacity="0.1" style="stop-color:#E86A58;stop-color:color(display-p3 0.9098 0.4157 0.3451);stop-opacity:0.1;"/>
<stop offset="0.99" stop-color="#E86A58" stop-opacity="0" style="stop-color:none;stop-opacity:0;"/>
<stop offset="1" stop-color="#E86A58" stop-opacity="0" style="stop-color:none;stop-opacity:0;"/>
</radialGradient>
<radialGradient id="paint1_radial_2705_101" cx="0" cy="0" r="1" gradientUnits="userSpaceOnUse" gradientTransform="translate(5657.39 22151.7) rotate(12.2387) scale(990.558 1150.24)">
<stop stop-color="#E86A58" stop-opacity="0.18" style="stop-color:#E86A58;stop-color:color(display-p3 0.9098 0.4157 0.3451);stop-opacity:0.18;"/>
<stop offset="0.3" stop-color="#E86A58" stop-opacity="0.16" style="stop-color:#E86A58;stop-color:color(display-p3 0.9098 0.4157 0.3451);stop-opacity:0.16;"/>
<stop offset="0.63" stop-color="#E86A58" stop-opacity="0.1" style="stop-color:#E86A58;stop-color:color(display-p3 0.9098 0.4157 0.3451);stop-opacity:0.1;"/>
<stop offset="0.99" stop-color="#E86A58" stop-opacity="0" style="stop-color:none;stop-opacity:0;"/>
<stop offset="1" stop-color="#E86A58" stop-opacity="0" style="stop-color:none;stop-opacity:0;"/>
</radialGradient>
<linearGradient id="paint2_linear_2705_101" x1="375.924" y1="283.996" x2="382.735" y2="352.914" gradientUnits="userSpaceOnUse">
<stop stop-color="#BABABA" style="stop-color:#BABABA;stop-color:color(display-p3 0.7275 0.7275 0.7275);stop-opacity:1;"/>
<stop offset="0.829668" stop-color="#B3B3B3" style="stop-color:#B3B3B3;stop-color:color(display-p3 0.7020 0.7020 0.7020);stop-opacity:1;"/>
</linearGradient>
<clipPath id="clip0_2705_101">
<rect width="497" height="497" fill="white" style="fill:white;fill-opacity:1;"/>
</clipPath>
</defs>
</svg>
