<svg width="497" height="497" viewBox="0 0 497 497" fill="none" xmlns="http://www.w3.org/2000/svg">
<g clip-path="url(#clip0_2705_62)">
<path d="M497 0H0V497H497V0Z" fill="#FF2602" style="fill:#FF2602;fill:color(display-p3 1.0000 0.1490 0.0078);fill-opacity:1;"/>
<path d="M155.92 505C155.92 505 171.19 456 215.69 439C234.91 431.66 269.19 429.5 291.92 441.5C305.42 448.63 312.92 461.5 316.92 469.73C322.375 480.659 324.956 492.797 324.42 505H155.92Z" fill="#BCBCBC" style="fill:#BCBCBC;fill:color(display-p3 0.7373 0.7373 0.7373);fill-opacity:1;"/>
<path d="M264.33 432.17C292.5 432.17 327.21 453.17 331.83 493.17C332.98 503.06 333.12 505.88 333.12 505.88H322.5C322.5 505.88 325.65 444.08 265 434.83C245.92 431.92 179.5 445.83 158.33 505.88H145.83C145.83 505.88 157 450 226.5 427.5C251.06 420.94 264.33 432.17 264.33 432.17Z" fill="#070610" style="fill:#070610;fill:color(display-p3 0.0275 0.0235 0.0627);fill-opacity:1;"/>
<path d="M296 505.88C296 505.88 295.5 494.62 296.75 489.5C298 484.38 295.88 481.5 293.75 481.12C291.62 480.74 288.88 481.88 287.88 486.25C286.657 492.722 286.028 499.293 286 505.88H296Z" fill="#070610" style="fill:#070610;fill:color(display-p3 0.0275 0.0235 0.0627);fill-opacity:1;"/>
<path d="M131.81 226.25C131.81 226.25 137.14 255.25 136.81 269.08C136.81 269.08 134.48 293.91 129.81 312.25C125.14 330.59 120.81 367.91 126.14 384.25C131.47 400.59 153.48 430.25 194.48 424.25C235.48 418.25 237.14 416.58 236.81 426.58C236.48 436.58 234.5 441.67 230.5 448C230.5 448 244.81 455.25 251.48 450.58L258.14 445.91C258.14 445.91 258.54 434.27 261.48 427.25C263.48 422.45 266.14 422.25 266.14 422.25C266.14 422.25 300.81 413.91 320.14 396.58C335.67 382.66 351.48 356.25 354.48 318.91C354.48 318.91 366.81 313.25 368.48 307.25L370.14 301.25C370.14 301.25 370.48 294.91 364.81 295.91C359.14 296.91 353.81 300.91 353.81 300.91C353.81 300.91 360.81 242.25 352.14 212.91C347.14 195.98 338.36 177.64 312.14 160.25C276.48 136.58 189.48 139.25 142.81 176.91C125.16 191.16 131.81 226.25 131.81 226.25Z" fill="#C3915E" style="fill:#C3915E;fill:color(display-p3 0.7647 0.5686 0.3686);fill-opacity:1;"/>
<path d="M135.85 280C135.85 280 147.71 272.65 150.67 265.34C162.35 271.34 181.57 271.34 184.29 265.34C187.01 259.34 184.38 254.16 180.66 251.91C184 253.1 186.25 251.1 186.66 248.54C190.35 251.54 208.22 249.42 212.53 242.16C215.72 245.66 232.41 244.44 237.35 237.85C241.47 244.66 266.28 245.79 274.35 236.16C274.35 236.16 290.69 223.05 277.2 197.33C263.71 171.61 151 174.67 135.85 202.13C120.7 229.59 118.08 255.68 135.85 280Z" fill="#AD723B" style="fill:#AD723B;fill:color(display-p3 0.6784 0.4471 0.2314);fill-opacity:1;"/>
<path d="M245.54 452.73C245.54 452.73 243.72 436 254 424.68C265 412.58 289 411.08 302.7 386.88C302.7 386.88 298.2 373.62 307.2 361.62C307.2 361.62 295.01 340 320.2 329.62L355.07 323.09C355.07 323.09 353.37 350.17 337.2 375.38C331.04 386.44 317.2 406.67 274.83 420.12C274.83 420.12 262.33 423.38 261.04 430.4C260.212 434.793 260.104 439.292 260.72 443.72C260.778 444.106 260.737 444.5 260.6 444.866C260.464 445.232 260.237 445.557 259.94 445.81C255.829 449.338 250.863 451.724 245.54 452.73V452.73Z" fill="#AD723B" style="fill:#AD723B;fill:color(display-p3 0.6784 0.4471 0.2314);fill-opacity:1;"/>
<path d="M178.25 378.94C198 379.69 231.62 374.44 231.62 374.44C231.62 374.44 232 363.88 235.5 360C239 356.12 241.12 358.12 241.12 358.12C241.12 358.12 244 359.5 241.12 364.12C238.24 368.74 238.56 375.38 239.31 378.56C240.06 381.74 245 389.5 245 389.5C245.033 389.662 245.02 389.83 244.964 389.986C244.907 390.141 244.809 390.278 244.68 390.381C244.551 390.485 244.396 390.551 244.232 390.571C244.068 390.592 243.901 390.568 243.75 390.5C242.38 390.12 241.12 391.75 241.12 391.75C241.12 391.75 240.38 392.61 238.88 390.88C236.122 387.537 233.945 383.754 232.44 379.69C232.44 379.69 203.86 385.31 177.92 384.31C177.92 384.31 175.81 384.69 175.06 381.56C174.35 378.6 178.25 378.94 178.25 378.94Z" fill="#070610" style="fill:#070610;fill:color(display-p3 0.0275 0.0235 0.0627);fill-opacity:1;"/>
<path d="M216.12 299C216.12 296.37 216.28 295 218.72 294.87C221.16 294.74 221.06 297.75 221.06 297.75C221.06 297.75 220.67 312.91 215.06 326.75C215.06 326.75 212.19 334.19 210.12 334.19C209.084 334.438 207.994 334.317 207.038 333.848C206.081 333.379 205.318 332.591 204.88 331.62C204.88 331.62 203.56 328.07 202.16 327.97C199.59 327.78 197.96 332.58 197.6 336.23C197.38 338.5 196.44 339.94 194.12 339.94C191.8 339.94 190.94 338.55 191.19 336.12C192.19 329.94 196.47 322.91 199.44 319.94C199.728 319.646 200.072 319.411 200.451 319.25C200.831 319.088 201.238 319.004 201.65 319C204.75 319 205.65 321.67 206.07 323.89C206.81 327.75 208.12 327.47 208.12 327.47C208.12 327.47 208.7 327.67 209.5 326.06C212.94 319.12 216.12 307.44 216.12 299Z" fill="#070610" style="fill:#070610;fill:color(display-p3 0.0275 0.0235 0.0627);fill-opacity:1;"/>
<path d="M267.4 284.57C267.49 282.69 268.84 279.57 271.88 280C274.25 280.31 275.69 282 275.31 285.5C274.88 289.5 271.47 306.69 268.86 311.25C267.37 313.86 266 314.44 263.86 313.96C262.86 313.73 261.73 312.44 262.28 309.06C263 304.59 266.77 296.57 267.4 284.57Z" fill="#070610" style="fill:#070610;fill:color(display-p3 0.0275 0.0235 0.0627);fill-opacity:1;"/>
<path d="M168.91 277.88C168.91 277.88 170.91 277.81 171.29 280.53C172.1 285.64 171.55 295.73 169.64 304.1C169.64 304.1 168.27 307.92 165.46 307.92C162.65 307.92 162.29 304.75 162.36 302.66C162.43 300.57 165.1 294.59 165.1 283.86C165.1 277.08 168.91 277.88 168.91 277.88Z" fill="#070610" style="fill:#070610;fill:color(display-p3 0.0275 0.0235 0.0627);fill-opacity:1;"/>
<path d="M253.28 261.12C253.22 267.12 259.28 271.5 269.88 271.75C280.48 272 285.55 270.58 290.88 265.67C296.21 260.76 280.36 256.94 271.04 257.26C261.72 257.58 253.31 258 253.28 261.12Z" fill="#AD723B" style="fill:#AD723B;fill:color(display-p3 0.6784 0.4471 0.2314);fill-opacity:1;"/>
<path d="M255.32 260C255.32 260 256.5 254.67 271.67 255.17C286.84 255.67 288.33 260 289.5 261C290.67 262 290.83 263.67 288 264.5C288 264.5 266.43 266.93 258.33 263.33C254.42 261.59 255.32 260 255.32 260Z" fill="#935C0A" style="fill:#935C0A;fill:color(display-p3 0.5765 0.3608 0.0392);fill-opacity:1;"/>
<path d="M293.13 261.18C292.87 259.61 292.87 257.52 287.81 255.6C282.75 253.68 276.21 253.42 268.76 253.68C264.253 253.858 259.79 254.638 255.49 256C255.49 256 251.69 259.23 254.05 262.89C256.41 266.55 272.54 267.19 272.54 267.19C272.54 267.19 284.93 267.78 289.38 266.38C292.89 265.23 293.39 262.75 293.13 261.18ZM284.23 262.93C284.23 262.93 267.23 264.08 259.23 261.88C255.44 260.88 256.7 258.39 260.8 257.69C264.191 257.337 267.601 257.193 271.01 257.26C271.01 257.26 283.68 256.51 286.28 261.1C287.46 263.1 284.23 262.93 284.23 262.93Z" fill="#070610" style="fill:#070610;fill:color(display-p3 0.0275 0.0235 0.0627);fill-opacity:1;"/>
<path d="M170 252.33C175 252.33 178.17 252.6 179.5 255.13C180.83 257.66 180.62 260.63 177.67 261.13C174.31 261.73 171.08 261.8 163.81 260.84C160.5 260.39 157.14 260.4 154.94 261.58C152.74 262.76 151.25 260.58 153.75 257.71C156.11 255 165 252.33 170 252.33Z" fill="#935C0A" style="fill:#935C0A;fill:color(display-p3 0.5765 0.3608 0.0392);fill-opacity:1;"/>
<path d="M183.62 255.13C183.62 255.13 182.38 250 171.62 249.88C160.86 249.76 150.22 255.13 150.22 255.13C150.22 255.13 145.72 258.5 147.35 261.75C148.98 265 154.85 264.08 154.85 264.08C157.643 263.474 160.484 263.12 163.34 263.02C166.19 263.1 173.59 263.88 173.59 263.88C176.466 263.962 179.299 263.175 181.72 261.62C182.288 261.337 182.792 260.939 183.199 260.452C183.606 259.965 183.909 259.399 184.087 258.79C184.265 258.181 184.316 257.541 184.236 256.911C184.155 256.281 183.946 255.675 183.62 255.13ZM176.38 259.62C173.585 260.282 170.675 260.282 167.88 259.62C163.5 258.5 157.88 259.5 155.5 260.12C153.12 260.74 152.62 258.75 153.62 258C154.62 257.25 158.62 254.12 169.25 254.12C169.25 254.12 176.88 254.04 178.12 256.38C179.68 259.28 176.38 259.62 176.38 259.62Z" fill="#070610" style="fill:#070610;fill:color(display-p3 0.0275 0.0235 0.0627);fill-opacity:1;"/>
<path d="M113.14 360.08C113.14 360.08 97.1401 353.75 97.4701 341.08C97.4701 341.08 98.4701 329.42 106.81 328.42C106.81 328.42 86.1401 328.75 86.1401 314.75C86.1401 314.75 86.1401 302.08 97.4701 302.42C97.4701 302.42 78.4701 294.42 78.4701 280.75C78.4701 268.08 85.8101 259.75 95.8101 259.75C95.8101 259.75 80.4701 251.08 80.4701 239.08C80.4701 239.08 79.4701 228.75 85.1401 223.75C85.1401 223.75 76.1401 203.08 83.4701 186.42C83.4701 186.42 86.1401 175.75 104.14 172.75C104.14 172.75 98.1401 156.42 107.47 145.75C107.47 145.75 112.47 137.75 125.47 137.08C125.47 137.08 127.47 121.26 141.47 117.08C141.47 117.08 157.03 116.08 168.69 121.08C168.69 121.08 177.14 98.4301 195.14 91.7601C195.14 91.7601 214.34 84.7601 228.34 97.3701C228.34 97.3701 230.47 76.0901 247.97 76.0901C265.47 76.0901 272.66 91.1701 272.66 91.1701C272.66 91.1701 277.72 78.0401 294.47 83.0901C312.14 88.4301 312.47 112.43 312.47 112.43C312.47 112.43 326.47 97.7601 345.81 103.09C353.92 105.33 357.14 116.76 354.81 125.43C354.81 125.43 362.47 117.09 369.81 120.43C377.15 123.77 391.47 136.09 382.81 156.76C382.81 156.76 401.47 154.43 410.14 169.09C410.14 169.09 424.14 188.76 407.14 203.76C407.14 203.76 428.47 202.09 432.47 228.09C432.47 228.09 434.14 248.76 413.47 255.43C413.47 255.43 430.81 256.76 430.47 272.76C430.47 272.76 432.77 288.76 411.77 295.76C411.77 295.76 423.43 304.76 421.1 316.43C417.1 336.43 391.43 334.43 391.43 334.43C391.43 334.43 405.43 339.09 403.43 347.43C403.43 347.43 399.77 357.43 386.1 355.43C386.1 355.43 395.1 364.43 387.1 371.76C379.1 379.09 369.43 371.76 369.43 371.76C369.43 371.76 374.81 387.89 364.08 392.23C353.56 396.49 344.52 388.41 342.86 386.08C341.2 383.75 346.43 396.76 332.1 398.08C317.77 399.4 316.43 385.08 316.43 385.08C316.43 385.08 317.43 371.75 329.1 374.42C329.1 374.42 320.43 371.42 321.1 363.42C321.77 355.42 330.77 352.42 330.77 352.42C330.77 352.42 318.77 358.08 317.1 348.42C315.43 338.76 325.43 328.75 325.43 328.75C325.43 328.75 311.43 330.42 310.1 316.75C310.1 316.75 309.77 301.75 325.77 296.08C325.77 296.08 309.1 293.75 309.43 275.08C309.76 256.41 326.1 250.42 326.1 250.42C326.1 250.42 316.77 257.42 307.43 249.75C298.09 242.08 302.1 229.08 302.1 229.08C302.1 229.08 298.43 240.84 283.1 237.08C267.77 233.32 271.77 219.08 271.77 219.08C271.77 219.08 263.43 234.08 250.77 232.42C238.11 230.76 237.1 215.75 237.1 215.75C237.1 215.75 232.1 224.42 225.43 223.75C225.43 223.75 212.77 224.08 213.43 205.75C213.43 205.75 213.1 223.08 195.77 226.42C178.44 229.76 177.1 212.75 177.1 212.75C177.1 212.75 179.1 227.42 162.43 233.75C145.76 240.08 143.43 225.42 143.43 225.42C143.43 225.42 148.1 236.08 139.43 248.42C130.76 260.76 131.1 255.42 131.1 255.42C132.79 262.396 133.354 269.597 132.77 276.75C131.77 288.42 125.1 305.08 121.77 324.42C119.756 336.082 118.972 347.924 119.43 359.75L113.14 360.08Z" fill="#935C0A" style="fill:#935C0A;fill:color(display-p3 0.5765 0.3608 0.0392);fill-opacity:1;"/>
<path d="M331.19 358.25C335.93 356.62 335.62 353.81 333.31 352.19C331 350.57 327.13 351.56 326.19 352.94C325.25 354.32 323.05 354.05 321.75 351.81C317.63 344.7 324.31 335.12 328.69 333.69C334.69 331.69 332.38 328.25 332.38 328.25C332.01 327.648 331.462 327.174 330.812 326.895C330.162 326.616 329.442 326.544 328.75 326.69C326.94 327.12 326.12 327.88 324.75 327.88C320 327.88 315.75 323.5 315.88 317.44C316.01 311.38 321.56 302.31 326.81 301.5C332.06 300.69 331.28 297.95 331.28 297.95C331.28 297.95 331.91 295.88 326.81 294.81C317.34 292.81 314 289 313.63 277C313.26 265 318.75 257.56 324.44 256.21C333.68 254.02 332 248.31 331.38 247.62C330.828 247.254 330.156 247.115 329.503 247.232C328.851 247.349 328.27 247.714 327.88 248.25C327.19 249.5 324.1 254.15 315.04 251.08C300.68 246.23 306.94 231.08 307.94 228.38C308.94 225.68 304.88 225.94 304.88 225.94C304.88 225.94 300.5 225.62 299.81 227.62C298.94 230.17 294.44 238.81 285.69 237.06C274.85 234.9 274.81 224.94 275.12 221.56C275.43 218.18 274.81 217.88 273.12 217.88C271.43 217.88 269.69 217.81 269 220.69C266.43 231.44 251.94 231.88 251.94 231.88C238.44 231.56 239.18 215.15 239.75 210.88C240.44 205.75 240.44 205.79 239.49 205.88C238 205.97 236.38 209.28 236.38 211.41C236.481 213.484 235.981 215.543 234.94 217.34C233.75 219.34 231.25 223.65 226.31 223.47C221.37 223.29 218.75 218.47 218.69 213.59C218.63 209.34 218.88 204.59 218.88 204.59C218.81 203.28 218 201.72 216.69 202.28C215.38 202.84 214.19 203.41 212.31 204.41C211.77 204.729 211.339 205.203 211.071 205.77C210.804 206.337 210.713 206.971 210.81 207.59L211 210.97C211.06 214.47 207.89 218.66 205.62 220.72C198.75 226.97 191.7 226.91 188.27 223.41C184.84 219.91 184.19 218.34 183.27 214.47C182.74 212.28 181.27 211.72 180.46 212.03C179.65 212.34 176.71 213.65 176.71 213.65C176.437 213.798 176.198 214 176.007 214.244C175.816 214.489 175.678 214.77 175.601 215.071C175.523 215.371 175.509 215.685 175.559 215.991C175.609 216.297 175.722 216.589 175.89 216.85C176.62 218.29 174.82 221.85 174.08 222.91C171.94 226.13 165.4 232.47 160.02 233.36C154.43 234.29 151.35 228.36 149.85 225.36C148.35 222.36 145.02 223.53 142.02 225.36C139.02 227.19 139.85 229.36 139.85 229.36C141.85 235.64 139.64 243.91 137.52 247.7C132.19 257.21 125.52 254.7 123.52 254.15C121.52 253.6 120.02 255.7 122.69 258.86C125.36 262.02 132.1 260.61 132.1 260.61C132.1 260.61 126.85 291.2 122.19 308.7C117.53 326.2 114.52 348.36 114.52 359.7C114.52 371.04 116.69 401.86 145.35 418.7C174.01 435.54 199.52 432.53 208.35 431.03C208.35 431.03 221.02 428.52 226.19 425.53C226.19 425.53 228.98 423.65 229.19 427.53C229.52 433.78 228.5 440.53 223.85 447.2C223.85 447.2 219.19 454.63 241.52 454.63C250.19 454.63 255.69 453.54 265.85 446.03C265.85 446.03 267.85 445.36 267.35 440.36C266.85 435.36 265.68 429.86 266.43 426.36C266.43 426.36 304.08 418.59 322.07 400.44L322.45 393.6C316.79 385.23 326.14 378.78 327.21 379.34C328.28 379.9 328.96 380.03 331.21 379.78C333.46 379.53 333.71 378.41 333.27 377.03C332.83 375.65 330.96 374.15 327.4 372.72C323.84 371.29 327.38 359.56 331.19 358.25ZM321.08 359.19C317.65 361.62 317.33 368.33 320.4 371.52C321.34 372.52 321.28 373.52 320.4 373.77C311.92 376.03 310.87 385.54 315.81 393.85C317.46 396.62 316.56 397.27 316.56 397.27C300.31 413.02 278.19 419.5 267.62 421.56C264.52 422.17 262.38 423.44 261.15 428.1C259.63 433.86 260.23 441.27 260.23 441.27C248.23 451.27 231.31 448.69 233.31 446.19C237.122 441.425 237.512 432.936 238.25 427.38C239.44 418.44 232.82 413.82 222.53 417.5C200.6 425.33 174.98 425.25 159.81 418.44C137.55 408.44 127.42 393.23 125.31 371.94C123.2 350.65 123.92 343.5 131.31 307.86C138.7 272.22 136.56 257.15 136.56 257.15C147.19 253.15 148.5 236.25 148.5 236.25C162.81 246.88 180.75 223.88 180.75 223.88C188.81 235.31 206.06 231.14 213.88 219.31C215.25 227.88 232.88 232.44 237.25 218.75C235.19 235.06 255.94 243.25 269.5 227.88C270.18 227.1 270.82 227.5 271 228.44C273.65 242.5 288.73 245.35 297.4 240.44C299.99 238.96 299.94 240.5 299.94 240.5C298.86 251.24 313.88 255.5 317.09 255.2C317.9 255.14 318.09 255.75 317.69 255.98C311.59 259.98 308.39 266.54 307.46 273.37C306.13 283.17 310.63 293.04 316.88 296.14C320.16 297.76 318.23 299.14 318.23 299.14C310.9 305.06 308.56 312.93 308.48 316.73C308.4 320.53 310.81 330.14 317.81 330.98C320.3 331.27 318.98 332.89 318.98 332.89C313.13 340.33 313.65 354.56 319.48 357.23C322.07 358.37 322.21 358.39 321.08 359.19Z" fill="#070610" style="fill:#070610;fill:color(display-p3 0.0275 0.0235 0.0627);fill-opacity:1;"/>
<path d="M116.48 365.51C97.26 364.19 83.38 349.08 93 331.67C80.38 327.62 75.25 312.25 85.25 304.12C73.12 298.62 63.62 277.5 84.62 257.38C72.24 249.38 73.75 232.38 82 224.5C74 218.25 72.88 178 98.75 173.5C92.88 154.12 111 134.24 122.25 137C124.88 122.76 144.25 106 165.62 118C167.92 119.29 168.51 119.54 169.5 116.25C172.25 107.12 198.5 75.01 223.12 92.88C227.5 95.38 227.93 94.88 228 91.25C228.25 78.88 256.53 64.5 270.75 86.25C272.88 89.5 273.12 89 275.25 86.38C277.38 83.76 303.12 67.25 315.75 105.88C339.12 93.12 359.25 103 359.25 120.38C378.12 113.5 394 135.75 390.12 155.62C413.5 155.88 428.5 179.25 417.88 203.12C442.88 213.25 447.5 245.5 422.5 255.12C442.88 265.75 438.92 290.48 420.12 299.88C418.62 300.62 419.03 301.19 419.5 301.5C425.5 305.5 434.85 336.44 404.5 338.12C400 338.38 400.38 339.88 401.75 341.12C403.12 342.36 415.12 357.12 394.5 359.75C401.38 375.12 384.5 382.5 377.38 381.25C379.25 389.75 366 400.88 348.62 395.5C346.38 404.73 324.88 404 319 398.5C317.873 397.546 316.965 396.36 316.34 395.022C315.715 393.684 315.388 392.227 315.38 390.75L320.63 388.6C320.63 388.6 320.89 396.84 329.73 396.73C338.73 396.61 340.54 392.98 340.02 387.73C339.75 384.98 341.75 385.6 341.75 385.6C341.75 385.6 344.62 386.1 345.75 384.86C346.88 383.62 348.25 383.86 348.75 385.1C349.25 386.34 352.88 394.1 362.62 389.48C372.36 384.86 368 378.25 367 376.38C366 374.51 366.12 372.38 367 372.12C368.605 372.008 370.109 371.294 371.21 370.12C372.6 368.48 373.97 372.4 375.28 373.83C376.41 375.04 385.28 374.56 385.28 364.92C385.28 358.16 381.78 355.04 381.78 355.04C381.78 355.04 399.65 354.54 399.91 348.16C400.17 341.78 393.51 340.76 391.28 340.16C390.227 339.903 389.312 339.254 388.721 338.345C388.13 337.437 387.908 336.337 388.099 335.271C388.29 334.204 388.881 333.25 389.75 332.603C390.62 331.957 391.703 331.666 392.78 331.79C396.89 332.18 417.15 331.17 417.15 314.79C417.15 303.29 410.28 302.16 410.28 302.16C405.53 300.79 407.03 292.36 411.96 292.44C418.53 292.54 426.91 283.66 426.65 272.92C426.65 272.92 428.2 255.68 412.03 258.79C405.53 260.04 406.78 255.92 409.15 253.79C411.52 251.66 437.69 235.58 424.91 218.54C415.53 206.04 407.86 209.54 407.86 209.54C403.53 210.93 400.57 203.54 404.91 200.3C410.15 196.43 421.53 164.93 389.28 162.43C387.15 162.26 386.34 162.95 385.65 164.43C384.96 165.91 382.91 165.15 382.78 163.75C382.68 162.63 382.25 162.39 381.27 162.75C380.29 163.11 376.78 162.22 380.65 156.35C385.49 149.02 378.91 124.88 366.15 124.6C360.53 124.48 355.49 129.43 353.15 129.69C351.5 129.88 349.62 128.89 350.78 122.1C351.53 117.72 348.56 105.18 331.28 107.1C324.53 107.85 318.94 109.25 315.53 114.1C313.9 116.41 312.46 116.96 310.15 116.85C306.97 116.7 305.41 114.1 305.91 108.35C306.41 102.6 299.66 87.48 287.91 87.48C282.15 87.48 275.91 92.1 272.03 96.35C268.28 90.72 258.61 74.77 241.53 82.48C231.25 87 230.62 97.62 230.75 99.75C230.88 101.88 228.5 102.88 226.12 101C223.74 99.12 198 76.5 174.88 118C170.74 125.43 169.48 127.56 163.88 123.88C159.5 121 133.34 114.49 129.75 137.38C128.75 143.75 127.25 144.38 119.15 144.13C113.28 143.95 100.88 155.75 108.88 176.75C88.38 181.12 83.56 188.75 83.88 204.25C84.12 216.75 85.6201 221.79 88.6201 224.12C88.6201 224.12 89.75 224.25 87.88 227.38C86.01 230.51 77.8201 247.91 102.12 259.12C103.75 259.88 104 263.38 101 263.38C98 263.38 81.88 269.25 82.12 282.25C82.36 295.25 94.0001 301 99.1201 301.25C104.24 301.5 102.5 306.88 99.25 306.75C96 306.62 90.2501 310.38 90.1201 316.12C89.9901 321.86 93 326.22 101.5 326.5C107.37 326.69 111.21 329.14 111.88 330.62C113 333.12 108 331.38 105.62 332.62C103.24 333.86 95.48 352.94 115.16 359.22L116.48 365.51Z" fill="#060500" style="fill:#060500;fill:color(display-p3 0.0235 0.0196 0.0000);fill-opacity:1;"/>
<path d="M266.69 341.67C283.43 341.67 297 332.268 297 320.67C297 309.072 283.43 299.67 266.69 299.67C249.95 299.67 236.38 309.072 236.38 320.67C236.38 332.268 249.95 341.67 266.69 341.67Z" fill="url(#paint0_radial_2705_62)" style=""/>
<path d="M365.31 267.69C360.31 267.44 353.69 268.25 350.69 271C351.75 261.75 348 261.18 345 261C342 260.82 342.25 263.79 342.25 263.79C342.25 263.79 349.5 274.54 346.25 315.79C349.238 314.474 351.828 312.396 353.758 309.763C355.689 307.13 356.893 304.036 357.25 300.79C357.25 300.79 362 298.34 365.5 298.44C369 298.54 380 295.54 379.75 284.04C379.5 272.54 370.31 267.94 365.31 267.69ZM360.56 293C357.06 294.69 357 292.81 357.06 290.88C357.12 288.95 357.06 284.25 355.69 282.69C355.295 282.349 355.038 281.875 354.968 281.357C354.898 280.839 355.019 280.314 355.31 279.88C355.31 279.88 369.69 272.56 370.12 279.38C370.55 286.2 364.06 291.31 360.56 293Z" fill="#070610" style="fill:#070610;fill:color(display-p3 0.0275 0.0235 0.0627);fill-opacity:1;"/>
<path d="M355.31 279.88C355.02 280.314 354.898 280.839 354.968 281.357C355.038 281.875 355.295 282.349 355.69 282.69C357.06 284.25 357.12 288.94 357.06 290.88C357 292.82 357.06 294.69 360.56 293C364.06 291.31 370.56 286.19 370.12 279.38C369.68 272.57 355.31 279.88 355.31 279.88Z" fill="#C3915E" style="fill:#C3915E;fill:color(display-p3 0.7647 0.5686 0.3686);fill-opacity:1;"/>
<path d="M145.882 341.388C162.397 344.121 177.32 337.06 179.213 325.618C181.107 314.176 169.253 302.684 152.738 299.952C136.223 297.219 121.3 304.28 119.407 315.722C117.513 327.164 129.367 338.656 145.882 341.388Z" fill="url(#paint1_radial_2705_62)" style=""/>
<path d="M379.685 365.407C386.049 360.935 394.83 349.549 400.087 338.64C412.043 313.831 415.229 272.647 388.786 255.941C368.968 243.646 342.728 255.678 332.434 276.612C325.489 290.947 322.899 307.25 323.003 321.293C323.055 328.327 323.783 334.876 325.02 340.411C326.24 345.876 328.018 350.632 330.337 353.851L330.426 353.974L330.524 354.088C336.861 361.436 347.887 369.968 360.346 370.911C366.664 371.389 373.288 369.902 379.685 365.407Z" fill="#D9D9D9" style="fill:#D9D9D9;fill:color(display-p3 0.8510 0.8510 0.8510);fill-opacity:1;"/>
<path d="M382.5 360.496C392.208 348.839 398.5 339.496 402.5 327.996C378.022 347.989 341.487 308.372 330 291.996L325.5 319.996L329 345.496L337 358.496C345.988 364.371 351.219 367.275 362.5 368.496C370.394 367.93 374.778 366.33 382.5 360.496Z" fill="#C4C4C4" style="fill:#C4C4C4;fill:color(display-p3 0.7675 0.7675 0.7675);fill-opacity:1;"/>
<path d="M388.786 255.941C415.229 272.647 412.043 313.831 400.087 338.64C394.83 349.549 386.049 360.935 379.685 365.407C373.288 369.902 366.664 371.389 360.346 370.911C347.887 369.968 337 363.496 330.524 354.088L330.426 353.974L330.337 353.851C328.018 350.632 326.24 345.876 325.02 340.411C323.783 334.876 323.055 328.327 323.003 321.293C322.899 307.25 325.489 290.947 332.434 276.612C342.728 255.678 368.968 243.646 388.786 255.941ZM385.731 262.171C341.5 234.496 317.5 322.496 337 353.851C342.5 361.496 349.5 364.996 360 366.496C367.152 367.518 372.5 365.996 378.5 361.496C411.5 331.496 414.5 285.496 385.731 262.171Z" fill="#070610" style="fill:#070610;fill:color(display-p3 0.0275 0.0235 0.0627);fill-opacity:1;"/>
<ellipse cx="375.924" cy="318.629" rx="23.6644" ry="34.6366" transform="rotate(15.2136 375.924 318.629)" fill="url(#paint2_linear_2705_62)" style=""/>
<path d="M384.882 285.688C390.982 287.347 395.574 292.482 398.026 299.55C400.476 306.615 400.764 315.563 398.277 324.708C395.79 333.853 391.01 341.422 385.319 346.273C379.626 351.126 373.065 353.228 366.966 351.569C360.866 349.91 356.274 344.775 353.823 337.708C351.372 330.642 351.085 321.695 353.572 312.55C356.059 303.405 360.838 295.836 366.529 290.985C372.222 286.132 378.782 284.03 384.882 285.688Z" stroke="black" stroke-opacity="0.04" style="stroke:black;stroke-opacity:0.04;"/>
<path d="M386.5 275.496C382.693 281.016 375.137 280.483 375.5 275.496C377.5 247.996 371.854 220.791 367.5 201.496C366.239 195.906 373.001 192.104 379.5 201.496C388.613 214.666 392.891 266.23 386.5 275.496Z" fill="#CCCCCC" style="fill:#CCCCCC;fill:color(display-p3 0.8000 0.8000 0.8000);fill-opacity:1;"/>
<path d="M370 194.496C371.5 193.996 374 193.496 376.231 195.485C396.517 216.295 392.652 266.406 388.482 275.727C387.431 279.866 383.968 282.223 380.862 281.996C379.31 281.883 377.763 281.337 376.596 280.36C375.4 279.358 373.873 277.186 374.003 275.388L374.176 272.821C375.777 246.725 372.876 220.547 366.418 202.889C365.105 199.359 366.588 196.202 370 194.496ZM375 197.996C373.834 196.697 372.21 195.901 370.5 196.496C367.68 197.477 367.5 200.496 368.5 202.496C374.752 212.273 378.559 239.266 377.169 273.013L376.996 275.605C376.945 276.3 377.222 276.883 377.796 277.364C378.4 277.87 379.317 278.232 380.354 278.308C382.426 278.459 384.447 277.487 385.046 275.127C388.158 268.255 392.607 217.609 375 197.996Z" fill="black" style="fill:black;fill-opacity:1;"/>
<path d="M373.5 191.996L370.5 207.996L367.5 211.996L364 210.496L359 195.996L368.5 183.996L373.5 191.996Z" fill="#935C0A" style="fill:#935C0A;fill:color(display-p3 0.5765 0.3608 0.0392);fill-opacity:1;"/>
<path d="M334.877 174.978C334.304 174.204 334.419 173.109 335.216 172.57C343.088 167.243 356.425 169.18 355.184 180.576C376.636 175.278 380.779 199.596 370.874 211.055C370.364 211.646 369.53 211.815 368.802 211.534V211.534C367.326 210.964 367.022 208.863 367.95 207.582C374.451 198.604 371.377 178.93 352.916 187.056L351.571 187.981C349.945 189.098 347.855 187.437 348.576 185.602L349.173 184.082C352.702 172.687 345.867 169.813 337.532 175.388C336.671 175.964 335.493 175.811 334.877 174.978V174.978Z" fill="black" style="fill:black;fill-opacity:1;"/>
</g>
<defs>
<radialGradient id="paint0_radial_2705_62" cx="0" cy="0" r="1" gradientUnits="userSpaceOnUse" gradientTransform="translate(267.775 321.564) scale(28.341 22.842)">
<stop stop-color="#E86A58" stop-opacity="0.18" style="stop-color:#E86A58;stop-color:color(display-p3 0.9098 0.4157 0.3451);stop-opacity:0.18;"/>
<stop offset="0.3" stop-color="#E86A58" stop-opacity="0.16" style="stop-color:#E86A58;stop-color:color(display-p3 0.9098 0.4157 0.3451);stop-opacity:0.16;"/>
<stop offset="0.63" stop-color="#E86A58" stop-opacity="0.1" style="stop-color:#E86A58;stop-color:color(display-p3 0.9098 0.4157 0.3451);stop-opacity:0.1;"/>
<stop offset="0.99" stop-color="#E86A58" stop-opacity="0" style="stop-color:none;stop-opacity:0;"/>
<stop offset="1" stop-color="#E86A58" stop-opacity="0" style="stop-color:none;stop-opacity:0;"/>
</radialGradient>
<radialGradient id="paint1_radial_2705_62" cx="0" cy="0" r="1" gradientUnits="userSpaceOnUse" gradientTransform="translate(149.715 321.643) rotate(9.39525) scale(28.341 22.842)">
<stop stop-color="#E86A58" stop-opacity="0.18" style="stop-color:#E86A58;stop-color:color(display-p3 0.9098 0.4157 0.3451);stop-opacity:0.18;"/>
<stop offset="0.3" stop-color="#E86A58" stop-opacity="0.16" style="stop-color:#E86A58;stop-color:color(display-p3 0.9098 0.4157 0.3451);stop-opacity:0.16;"/>
<stop offset="0.63" stop-color="#E86A58" stop-opacity="0.1" style="stop-color:#E86A58;stop-color:color(display-p3 0.9098 0.4157 0.3451);stop-opacity:0.1;"/>
<stop offset="0.99" stop-color="#E86A58" stop-opacity="0" style="stop-color:none;stop-opacity:0;"/>
<stop offset="1" stop-color="#E86A58" stop-opacity="0" style="stop-color:none;stop-opacity:0;"/>
</radialGradient>
<linearGradient id="paint2_linear_2705_62" x1="375.924" y1="283.992" x2="382.735" y2="352.91" gradientUnits="userSpaceOnUse">
<stop stop-color="#BABABA" style="stop-color:#BABABA;stop-color:color(display-p3 0.7275 0.7275 0.7275);stop-opacity:1;"/>
<stop offset="0.829668" stop-color="#B3B3B3" style="stop-color:#B3B3B3;stop-color:color(display-p3 0.7020 0.7020 0.7020);stop-opacity:1;"/>
</linearGradient>
<clipPath id="clip0_2705_62">
<rect width="497" height="497" fill="white" style="fill:white;fill-opacity:1;"/>
</clipPath>
</defs>
</svg>
