<svg width="497" height="497" viewBox="0 0 497 497" fill="none" xmlns="http://www.w3.org/2000/svg">
<g clip-path="url(#clip0_2705_5)">
<rect width="497" height="497" fill="#FF2602" style="fill:#FF2602;fill:color(display-p3 1.0000 0.1490 0.0078);fill-opacity:1;"/>
<path d="M156.806 497.127C156.806 497.127 171.915 448.526 215.946 431.664C234.963 424.384 268.882 422.242 291.372 434.144C304.73 441.216 312.151 453.981 316.109 462.144C321.506 472.984 324.06 485.024 323.53 497.127H156.806Z" fill="#BCBCBC" style="fill:#BCBCBC;fill:color(display-p3 0.7373 0.7373 0.7373);fill-opacity:1;"/>
<path d="M264.073 424.89C291.947 424.89 326.291 445.719 330.862 485.393C332 495.203 332.138 498 332.138 498H321.63C321.63 498 324.747 436.703 264.736 427.528C245.858 424.642 180.138 438.439 159.191 498H146.823C146.823 498 157.875 442.575 226.642 420.258C250.943 413.751 264.073 424.89 264.073 424.89Z" fill="#070610" style="fill:#070610;fill:color(display-p3 0.0275 0.0235 0.0627);fill-opacity:1;"/>
<path d="M295.409 498C295.409 498 294.915 486.832 296.151 481.753C297.388 476.675 295.291 473.818 293.183 473.441C291.075 473.065 288.364 474.195 287.375 478.53C286.165 484.949 285.542 491.467 285.515 498H295.409Z" fill="#070610" style="fill:#070610;fill:color(display-p3 0.0275 0.0235 0.0627);fill-opacity:1;"/>
<path d="M132.95 210.007C132.95 210.007 138.224 238.771 137.897 252.488C137.897 252.488 135.592 277.116 130.971 295.307C126.35 313.497 122.066 350.513 127.34 366.72C132.613 382.927 154.391 412.346 194.959 406.395C235.527 400.444 237.17 398.787 236.843 408.706C236.517 418.624 235.527 428.543 231.569 434.822C231.569 434.822 244.759 437.143 251.358 432.511L257.948 427.879C257.948 427.879 258.344 416.333 261.253 409.37C263.232 404.61 265.864 404.411 265.864 404.411C265.864 404.411 300.169 396.139 319.295 378.95C334.661 365.143 350.304 338.948 353.273 301.912C353.273 301.912 365.473 296.298 367.125 290.347L368.768 284.396C368.768 284.396 369.104 278.108 363.494 279.1C357.884 280.091 352.61 284.059 352.61 284.059C352.61 284.059 359.536 225.876 350.957 196.775C346.01 179.983 337.323 161.792 311.379 144.544C276.095 121.067 190.012 123.715 143.834 161.068C126.37 175.202 132.95 210.007 132.95 210.007Z" fill="#C3915E" style="fill:#C3915E;fill:color(display-p3 0.7647 0.5686 0.3686);fill-opacity:1;"/>
<path d="M136.947 263.319C136.947 263.319 148.682 256.029 151.611 248.778C163.168 254.73 182.185 254.73 184.876 248.778C187.568 242.827 184.966 237.689 181.285 235.458C184.59 236.638 186.816 234.654 187.221 232.115C190.873 235.091 208.554 232.988 212.819 225.787C215.975 229.259 232.489 228.049 237.377 221.512C241.454 228.267 266.002 229.388 273.987 219.836C273.987 219.836 290.155 206.833 276.807 181.322C263.459 155.811 151.937 158.846 136.947 186.083C121.957 213.319 119.364 239.197 136.947 263.319Z" fill="#AD723B" style="fill:#AD723B;fill:color(display-p3 0.6784 0.4471 0.2314);fill-opacity:1;"/>
<path d="M245.481 434.643C245.481 434.643 243.68 418.049 253.852 406.821C264.736 394.82 288.483 393.332 302.039 369.329C302.039 369.329 297.586 356.177 306.491 344.275C306.491 344.275 294.43 322.831 319.354 312.535L353.857 306.058C353.857 306.058 352.174 332.918 336.175 357.923C330.08 368.893 316.386 388.958 274.462 402.299C274.462 402.299 262.094 405.532 260.818 412.495C259.998 416.852 259.891 421.314 260.501 425.706C260.558 426.089 260.518 426.48 260.383 426.843C260.248 427.206 260.023 427.528 259.729 427.779C255.661 431.279 250.748 433.645 245.481 434.643V434.643Z" fill="#AD723B" style="fill:#AD723B;fill:color(display-p3 0.6784 0.4471 0.2314);fill-opacity:1;"/>
<path d="M225 357.271C225.4 345.271 215.833 339.604 211 338.271C206 338.271 195 341.271 196 357.271C197 373.271 205 375.271 211 375.271C217 375.271 224.5 372.271 225 357.271Z" fill="#F96A6A" style="fill:#F96A6A;fill:color(display-p3 0.9750 0.4144 0.4144);fill-opacity:1;"/>
<path d="M215.5 348.771L216.5 340.771L210.5 338.771L204 339.271L203.5 347.771L215.5 348.771Z" fill="white" style="fill:white;fill-opacity:1;"/>
<path fill-rule="evenodd" clip-rule="evenodd" d="M209 335.271C221 335.271 228 344.462 228 353.271C228 368.271 224 378.271 209 378.271C194 378.271 193.5 362.438 193 355.771C192.333 348.271 197 335.271 209 335.271ZM223 358.271C224 349.771 219 339.771 210 339.771C199.6 339.771 197.333 350.938 197.5 356.771C197.167 363.604 199.2 374.171 210 373.771C223.5 373.271 222 366.771 223 358.271Z" fill="black" style="fill:black;fill-opacity:1;"/>
<path d="M216.371 282.164C216.371 279.556 216.529 278.197 218.943 278.068C221.358 277.939 221.259 280.925 221.259 280.925C221.259 280.925 220.873 295.961 215.322 309.689C215.322 309.689 212.482 317.068 210.434 317.068C209.409 317.314 208.33 317.194 207.384 316.728C206.438 316.263 205.683 315.482 205.249 314.519C205.249 314.519 203.943 310.998 202.558 310.899C200.015 310.71 198.402 315.471 198.046 319.091C197.828 321.343 196.898 322.771 194.603 322.771C192.307 322.771 191.456 321.392 191.703 318.982C192.693 312.853 196.928 305.88 199.866 302.934C200.152 302.642 200.492 302.409 200.867 302.249C201.242 302.089 201.645 302.005 202.053 302.002C205.12 302.002 206.011 304.65 206.427 306.852C207.159 310.68 208.455 310.403 208.455 310.403C208.455 310.403 209.029 310.601 209.82 309.004C213.224 302.121 216.371 290.536 216.371 282.164Z" fill="#070610" style="fill:#070610;fill:color(display-p3 0.0275 0.0235 0.0627);fill-opacity:1;"/>
<path d="M263.09 287.961C263.51 286.791 264.24 286.121 265.22 286.491C266.53 286.991 265.78 289.391 267.09 289.861C270.01 290.911 270.21 287.971 271.2 287.861C272.64 287.671 272.8 289.461 272.51 291.341C272.11 293.931 271.58 294.491 270.69 295.531C269.16 297.311 267.56 297.531 265.44 297.031C264.44 296.801 262.81 295.841 262.63 293.031C262.479 291.327 262.635 289.61 263.09 287.961V287.961Z" fill="#070610" style="fill:#070610;fill:color(display-p3 0.0275 0.0235 0.0627);fill-opacity:1;"/>
<path d="M167.38 282.391C169.81 282.391 169.88 280.391 170.63 280.391C171.38 280.391 171.85 281.281 172.04 282.301C172.518 284.138 172.297 286.087 171.42 287.771C171.42 287.771 168.75 290.941 166.5 290.581C166.067 290.558 165.642 290.449 165.252 290.259C164.862 290.068 164.514 289.801 164.229 289.474C163.945 289.146 163.729 288.765 163.595 288.352C163.461 287.939 163.412 287.503 163.45 287.071C163.52 284.981 164.06 285.731 164.08 283.521C164.08 281.521 164.3 280.771 165.29 280.601C166.56 280.391 166.19 282.391 167.38 282.391Z" fill="#070610" style="fill:#070610;fill:color(display-p3 0.0275 0.0235 0.0627);fill-opacity:1;"/>
<path d="M253.139 240.951C253.08 246.902 259.076 251.246 269.564 251.494C280.053 251.742 285.069 250.334 290.343 245.464C295.617 240.594 279.934 236.805 270.712 237.122C261.49 237.439 253.169 237.856 253.139 240.951Z" fill="#AD723B" style="fill:#AD723B;fill:color(display-p3 0.6784 0.4471 0.2314);fill-opacity:1;"/>
<path d="M255.158 239.84C255.158 239.84 256.325 234.553 271.335 235.049C286.345 235.545 287.82 239.84 288.977 240.832C290.135 241.823 290.293 243.48 287.493 244.303C287.493 244.303 266.15 246.713 258.136 243.143C254.267 241.417 255.158 239.84 255.158 239.84Z" fill="#935C0A" style="fill:#935C0A;fill:color(display-p3 0.5765 0.3608 0.0392);fill-opacity:1;"/>
<path d="M292.569 241.01C292.312 239.453 292.312 237.38 287.305 235.476C282.299 233.571 275.828 233.313 268.456 233.571C263.997 233.748 259.581 234.522 255.326 235.872C255.326 235.872 251.566 239.076 253.901 242.706C256.236 246.336 272.196 246.971 272.196 246.971C272.196 246.971 284.456 247.556 288.859 246.168C292.332 245.027 292.826 242.567 292.569 241.01ZM283.763 242.746C283.763 242.746 266.942 243.887 259.027 241.704C255.276 240.713 256.523 238.243 260.58 237.549C263.935 237.199 267.309 237.056 270.682 237.122C270.682 237.122 283.219 236.378 285.791 240.931C286.959 242.915 283.763 242.746 283.763 242.746Z" fill="#070610" style="fill:#070610;fill:color(display-p3 0.0275 0.0235 0.0627);fill-opacity:1;"/>
<path d="M170.737 234.66C175.684 234.66 178.821 234.928 180.137 237.437C181.453 239.947 181.245 242.893 178.326 243.389C175.002 243.984 171.806 244.053 164.612 243.101C161.337 242.655 158.013 242.665 155.836 243.835C153.659 245.005 152.185 242.843 154.658 239.996C156.993 237.309 165.79 234.66 170.737 234.66Z" fill="#935C0A" style="fill:#935C0A;fill:color(display-p3 0.5765 0.3608 0.0392);fill-opacity:1;"/>
<path d="M184.213 237.438C184.213 237.438 182.986 232.349 172.34 232.23C161.693 232.111 151.165 237.438 151.165 237.438C151.165 237.438 146.713 240.78 148.326 244.004C149.938 247.227 155.747 246.315 155.747 246.315C158.51 245.714 161.321 245.362 164.147 245.263C166.967 245.343 174.289 246.116 174.289 246.116C177.134 246.198 179.938 245.417 182.333 243.875C182.896 243.594 183.394 243.199 183.797 242.716C184.2 242.233 184.499 241.672 184.675 241.068C184.852 240.463 184.902 239.829 184.822 239.204C184.743 238.58 184.536 237.978 184.213 237.438ZM177.05 241.891C174.284 242.548 171.404 242.548 168.639 241.891C164.305 240.78 158.745 241.772 156.39 242.387C154.035 243.002 153.54 241.028 154.53 240.284C155.519 239.54 159.477 236.436 169.995 236.436C169.995 236.436 177.544 236.356 178.771 238.677C180.315 241.554 177.05 241.891 177.05 241.891Z" fill="#070610" style="fill:#070610;fill:color(display-p3 0.0275 0.0235 0.0627);fill-opacity:1;"/>
<path d="M114.476 342.747C114.476 342.747 98.6451 336.469 98.9716 323.902C98.9716 323.902 99.9611 312.337 108.213 311.345C108.213 311.345 87.761 311.672 87.761 297.786C87.761 297.786 87.761 285.219 98.9716 285.557C98.9716 285.557 80.1719 277.622 80.1719 264.063C80.1719 251.496 87.4345 243.234 97.3291 243.234C97.3291 243.234 82.1508 234.634 82.1508 222.732C82.1508 222.732 81.1613 212.486 86.7716 207.527C86.7716 207.527 77.8664 187.025 85.1192 170.501C85.1192 170.501 87.761 159.918 105.571 156.942C105.571 156.942 99.6345 140.745 108.866 130.162C108.866 130.162 113.813 122.227 126.676 121.562C126.676 121.562 128.655 105.871 142.508 101.725C142.508 101.725 157.904 100.733 169.441 105.693C169.441 105.693 177.802 83.2271 195.612 76.6114C195.612 76.6114 214.61 69.6683 228.462 82.1757C228.462 82.1757 230.57 61.0689 247.885 61.0689C265.201 61.0689 272.315 76.0262 272.315 76.0262C272.315 76.0262 277.322 63.003 293.895 68.0119C311.379 73.3085 311.705 97.1131 311.705 97.1131C311.705 97.1131 325.558 82.5625 344.694 87.8491C352.718 90.0709 355.905 101.408 353.599 110.007C353.599 110.007 361.178 101.735 368.441 105.048C375.704 108.361 389.873 120.581 381.304 141.082C381.304 141.082 399.767 138.771 408.346 153.312C408.346 153.312 422.198 172.822 405.378 187.7C405.378 187.7 426.483 186.043 430.441 211.832C430.441 211.832 432.093 232.333 411.641 238.949C411.641 238.949 428.798 240.268 428.462 256.138C428.462 256.138 430.737 272.008 409.959 278.951C409.959 278.951 421.496 287.878 419.19 299.453C415.233 319.29 389.833 317.306 389.833 317.306C389.833 317.306 403.686 321.928 401.707 330.2C401.707 330.2 398.085 340.119 384.559 338.135C384.559 338.135 393.464 347.062 385.549 354.332C377.633 361.602 368.065 354.332 368.065 354.332C368.065 354.332 373.388 370.331 362.771 374.636C352.362 378.861 343.418 370.847 341.775 368.536C340.133 366.225 345.307 379.129 331.128 380.438C316.95 381.747 315.624 367.544 315.624 367.544C315.624 367.544 316.613 354.322 328.16 356.97C328.16 356.97 319.581 353.995 320.244 346.06C320.907 338.125 329.812 335.15 329.812 335.15C329.812 335.15 317.939 340.764 316.287 331.182C314.634 321.601 324.529 311.672 324.529 311.672C324.529 311.672 310.676 313.329 309.36 299.77C309.36 299.77 309.034 284.892 324.865 279.268C324.865 279.268 308.371 276.957 308.697 258.439C309.024 239.921 325.192 233.98 325.192 233.98C325.192 233.98 315.96 240.923 306.719 233.315C297.477 225.708 301.445 212.814 301.445 212.814C301.445 212.814 297.813 224.478 282.645 220.748C267.477 217.019 271.434 202.895 271.434 202.895C271.434 202.895 263.182 217.773 250.656 216.126C238.129 214.48 237.13 199.592 237.13 199.592C237.13 199.592 232.183 208.191 225.583 207.527C225.583 207.527 213.056 207.854 213.709 189.673C213.709 189.673 213.383 206.862 196.235 210.175C179.088 213.488 177.762 196.616 177.762 196.616C177.762 196.616 179.741 211.167 163.247 217.446C146.753 223.724 144.447 209.183 144.447 209.183C144.447 209.183 149.068 219.757 140.489 231.996C131.911 244.236 132.247 238.939 132.247 238.939C133.919 245.858 134.477 253 133.9 260.096C132.91 271.671 126.31 288.195 123.015 307.377C121.023 318.945 120.247 330.69 120.7 342.42L114.476 342.747Z" fill="#935C0A" style="fill:#935C0A;fill:color(display-p3 0.5765 0.3608 0.0392);fill-opacity:1;"/>
<path d="M330.228 340.932C334.918 339.315 334.611 336.528 332.326 334.921C330.04 333.315 326.211 334.297 325.281 335.665C324.351 337.034 322.174 336.766 320.888 334.545C316.811 327.492 323.421 317.99 327.754 316.572C333.691 314.588 331.405 311.176 331.405 311.176C331.039 310.579 330.497 310.109 329.854 309.832C329.211 309.555 328.498 309.484 327.814 309.629C326.023 310.055 325.211 310.809 323.856 310.809C319.156 310.809 314.951 306.465 315.079 300.454C315.208 294.444 320.7 285.447 325.894 284.644C331.089 283.841 330.317 281.123 330.317 281.123C330.317 281.123 330.94 279.07 325.894 278.008C316.524 276.025 313.219 272.246 312.853 260.343C312.487 248.441 317.919 241.062 323.549 239.723C332.692 237.551 331.029 231.887 330.416 231.203C329.87 230.839 329.205 230.701 328.559 230.818C327.914 230.934 327.338 231.296 326.953 231.827C326.27 233.067 323.213 237.679 314.248 234.634C300.04 229.824 306.234 214.797 307.223 212.119C308.213 209.441 304.195 209.699 304.195 209.699C304.195 209.699 299.861 209.382 299.179 211.365C298.318 213.895 293.865 222.464 285.208 220.729C274.482 218.586 274.442 208.707 274.749 205.355C275.056 202.002 274.442 201.705 272.77 201.705C271.098 201.705 269.376 201.635 268.694 204.492C266.151 215.154 251.813 215.591 251.813 215.591C238.456 215.273 239.188 198.997 239.752 194.762C240.435 189.673 240.435 189.713 239.495 189.802C238.02 189.892 236.417 193.175 236.417 195.287C236.517 197.345 236.023 199.387 234.993 201.169C233.815 203.153 231.341 207.428 226.453 207.249C221.566 207.071 218.973 202.29 218.914 197.45C218.854 193.234 219.102 188.523 219.102 188.523C219.033 187.224 218.231 185.676 216.935 186.232C215.639 186.787 214.461 187.353 212.601 188.344C212.067 188.661 211.64 189.13 211.375 189.693C211.111 190.255 211.021 190.884 211.117 191.498L211.305 194.851C211.364 198.322 208.228 202.478 205.982 204.522C199.184 210.721 192.208 210.661 188.814 207.19C185.421 203.718 184.777 202.161 183.867 198.322C183.343 196.15 181.888 195.595 181.087 195.902C180.285 196.21 177.376 197.509 177.376 197.509C177.106 197.655 176.869 197.856 176.68 198.099C176.492 198.341 176.355 198.62 176.278 198.918C176.202 199.216 176.188 199.527 176.238 199.831C176.287 200.134 176.398 200.425 176.565 200.683C177.287 202.111 175.506 205.642 174.774 206.694C172.657 209.888 166.186 216.176 160.862 217.059C155.331 217.981 152.284 212.099 150.799 209.124C149.315 206.148 146.02 207.309 143.052 209.124C140.084 210.939 140.905 213.091 140.905 213.091C142.884 219.32 140.697 227.523 138.599 231.282C133.326 240.715 126.726 238.225 124.747 237.679C122.768 237.134 121.284 239.217 123.926 242.351C126.568 245.485 133.237 244.087 133.237 244.087C133.237 244.087 128.042 274.428 123.431 291.785C118.82 309.143 115.842 331.123 115.842 342.37C115.842 353.618 117.989 384.187 146.347 400.89C174.705 417.593 199.946 414.607 208.683 413.12C208.683 413.12 221.219 410.63 226.335 407.664C226.335 407.664 229.095 405.8 229.303 409.648C229.63 415.847 227.631 427.502 223.03 434.117C223.03 434.117 218.419 441.487 240.514 441.487C249.092 441.487 254.534 440.406 264.587 432.957C264.587 432.957 266.566 432.292 266.071 427.333C265.577 422.374 265.409 411.959 266.151 408.488C266.151 408.488 303.404 400.781 321.204 382.779L321.58 375.994C315.98 367.692 325.231 361.295 326.29 361.85C327.349 362.406 328.021 362.535 330.248 362.287C332.474 362.039 332.721 360.928 332.286 359.559C331.851 358.19 330 356.703 326.478 355.284C322.955 353.866 326.458 342.231 330.228 340.932ZM320.225 341.864C316.831 344.275 316.514 350.93 319.552 354.094C320.482 355.086 320.422 356.078 319.552 356.326C311.161 358.567 310.122 368 315.01 376.242C316.643 378.99 315.752 379.634 315.752 379.634C299.673 395.256 277.787 401.683 267.328 403.727C264.261 404.332 262.143 405.591 260.926 410.213C259.422 415.927 259.027 428.236 259.027 428.236C247.153 438.154 230.411 435.595 232.39 433.116C234.369 430.636 235.359 425.915 235.359 425.915C235.359 425.915 236.576 422.275 238.268 409.499C239.445 400.632 232.895 396.05 222.713 399.7C201.014 407.466 175.665 407.387 160.654 400.632C138.629 390.714 128.606 375.627 126.518 354.511C124.43 333.394 125.143 326.302 132.455 290.952C139.767 255.602 137.649 240.655 137.649 240.655C148.167 236.688 149.464 219.925 149.464 219.925C163.623 230.469 181.374 207.656 181.374 207.656C189.349 218.993 206.417 214.857 214.155 203.123C215.51 211.623 232.954 216.146 237.278 202.568C235.24 218.745 255.771 226.868 269.188 211.623C269.861 210.85 270.494 211.246 270.672 212.179C273.295 226.124 288.216 228.951 296.794 224.081C299.357 222.613 299.307 224.141 299.307 224.141C298.239 234.793 313.1 239.018 316.277 238.721C317.078 238.661 317.266 239.266 316.87 239.495C310.835 243.462 307.668 249.969 306.748 256.743C305.432 266.463 309.885 276.253 316.069 279.328C319.314 280.934 317.405 282.303 317.405 282.303C310.152 288.175 307.837 295.981 307.757 299.75C307.678 303.519 310.063 313.051 316.989 313.884C319.453 314.172 318.147 315.779 318.147 315.779C312.358 323.158 312.873 337.272 318.641 339.92C321.204 341.051 321.343 341.071 320.225 341.864Z" fill="#070610" style="fill:#070610;fill:color(display-p3 0.0275 0.0235 0.0627);fill-opacity:1;"/>
<path d="M117.781 348.133C98.7639 346.824 85.0302 331.837 94.5488 314.568C82.0619 310.551 76.9859 295.307 86.8805 287.243C74.8784 281.787 65.4785 260.839 86.2572 240.883C74.0077 232.948 75.5017 216.087 83.6648 208.271C75.7491 202.072 74.6409 162.149 100.238 157.686C94.4301 138.464 112.359 118.746 123.491 121.483C126.093 107.359 145.259 90.7355 166.403 102.638C168.679 103.917 169.263 104.165 170.243 100.902C172.964 91.8463 198.937 59.9977 223.297 77.7223C227.631 80.2019 228.057 79.706 228.126 76.1055C228.373 63.8362 256.355 49.5733 270.425 71.1462C272.533 74.3698 272.77 73.8738 274.878 71.2752C276.985 68.6765 302.454 52.3009 314.951 90.6164C338.075 77.9603 357.992 87.7599 357.992 104.998C376.664 98.1744 392.376 120.243 388.537 139.952C411.671 140.209 426.513 163.389 416.004 187.065C440.741 197.112 445.312 229.1 420.576 238.642C440.741 249.185 436.823 273.714 418.221 283.037C416.737 283.771 417.142 284.337 417.607 284.644C423.544 288.611 432.796 319.3 402.766 320.966C398.313 321.224 398.689 322.712 400.045 323.942C401.4 325.171 413.274 339.811 392.871 342.42C399.678 357.665 382.976 364.985 375.931 363.745C377.782 372.176 364.671 383.215 347.475 377.879C345.258 387.034 323.985 386.31 318.167 380.854C317.051 379.909 316.153 378.732 315.535 377.405C314.917 376.078 314.592 374.632 314.585 373.168L319.78 371.035C319.78 371.035 320.037 379.208 328.784 379.099C337.689 378.98 339.48 375.379 338.965 370.172C338.698 367.445 340.677 368.059 340.677 368.059C340.677 368.059 343.517 368.555 344.635 367.325C345.753 366.096 347.108 366.334 347.603 367.564C348.098 368.793 351.69 376.49 361.327 371.908C370.964 367.326 366.65 360.769 365.661 358.915C364.671 357.06 364.79 354.947 365.661 354.689C367.249 354.578 368.737 353.87 369.826 352.705C371.202 351.079 372.557 354.967 373.854 356.385C374.972 357.585 383.748 357.109 383.748 347.548C383.748 340.843 380.285 337.748 380.285 337.748C380.285 337.748 397.967 337.252 398.224 330.924C398.481 324.596 391.891 323.584 389.685 322.989C388.643 322.734 387.738 322.09 387.153 321.189C386.568 320.288 386.348 319.198 386.537 318.14C386.726 317.082 387.311 316.136 388.171 315.494C389.032 314.853 390.104 314.564 391.169 314.688C395.236 315.074 415.282 314.073 415.282 297.826C415.282 286.419 408.485 285.299 408.485 285.299C403.785 283.94 405.269 275.578 410.147 275.658C416.648 275.757 424.939 266.949 424.682 256.297C424.682 256.297 426.216 239.197 410.216 242.282C403.785 243.522 405.021 239.435 407.366 237.322C409.712 235.21 435.606 219.261 422.96 202.359C413.679 189.961 406.09 193.433 406.09 193.433C401.806 194.811 398.877 187.481 403.171 184.268C408.356 180.429 419.616 149.186 387.706 146.706C385.598 146.537 384.797 147.222 384.114 148.69C383.431 150.158 381.403 149.404 381.274 148.015C381.176 146.904 380.75 146.666 379.78 147.024C378.811 147.381 375.338 146.498 379.167 140.676C383.956 133.405 377.445 109.462 364.82 109.184C359.259 109.065 354.272 113.975 351.957 114.233C350.324 114.421 348.464 113.439 349.612 106.704C350.354 102.36 347.415 89.9221 330.317 91.8265C323.638 92.5704 318.107 93.959 314.733 98.7695C313.12 101.061 311.696 101.606 309.41 101.497C306.264 101.348 304.72 98.7695 305.215 93.0663C305.709 87.3631 299.031 72.3662 287.404 72.3662C281.705 72.3662 275.531 76.9486 271.692 81.164C267.981 75.5798 258.413 59.7597 241.513 67.4069C231.342 71.8901 230.718 82.4237 230.847 84.5363C230.976 86.649 228.621 87.6409 226.266 85.7762C223.911 83.9115 198.442 61.4756 175.566 102.638C171.469 110.007 170.223 112.12 164.682 108.47C160.348 105.613 134.464 99.1563 130.911 121.86C129.922 128.178 128.438 128.803 120.423 128.555C114.615 128.377 102.346 140.08 110.261 160.91C89.9775 165.244 85.2083 172.812 85.525 188.186C85.7624 200.584 87.2466 205.583 90.215 207.894C90.215 207.894 91.3331 208.023 89.4828 211.127C87.6325 214.232 79.5289 231.49 103.573 242.609C105.186 243.363 105.433 246.834 102.465 246.834C99.4961 246.834 83.5461 252.657 83.7835 265.551C84.021 278.445 95.5383 284.148 100.604 284.396C105.67 284.644 103.949 289.98 100.733 289.851C97.5172 289.722 91.8278 293.452 91.6992 299.145C91.5706 304.838 94.5488 309.163 102.959 309.441C108.767 309.629 112.567 312.059 113.23 313.527C114.338 316.007 109.391 314.281 107.036 315.511C104.681 316.741 97.0027 335.665 116.475 341.894L117.781 348.133Z" fill="#060500" style="fill:#060500;fill:color(display-p3 0.0235 0.0196 0.0000);fill-opacity:1;"/>
<path d="M266.928 343.526C283.634 343.526 297.178 333.872 297.178 321.962C297.178 310.053 283.634 300.399 266.928 300.399C250.221 300.399 236.678 310.053 236.678 321.962C236.678 333.872 250.221 343.526 266.928 343.526Z" fill="url(#paint0_radial_2705_5)" style=""/>
<path d="M181.244 326.212C183.683 314.916 174.658 303.371 161.086 300.427C147.515 297.483 134.536 304.255 132.097 315.552C129.659 326.849 138.684 338.393 152.255 341.337C165.827 344.281 178.806 337.509 181.244 326.212Z" fill="url(#paint1_radial_2705_5)" style=""/>
<path d="M364.692 270.436C359.674 270.196 353.031 270.973 350.02 273.61C351.084 264.738 347.32 264.191 344.309 264.019C341.298 263.846 341.549 266.695 341.549 266.695C341.549 266.695 348.825 277.006 345.564 316.572C348.563 315.31 351.162 313.316 353.099 310.791C355.037 308.265 356.246 305.297 356.603 302.184C356.603 302.184 361.37 299.834 364.883 299.93C368.396 300.026 379.435 297.148 379.184 286.118C378.934 275.087 369.71 270.675 364.692 270.436ZM359.925 294.712C356.413 296.333 356.352 294.53 356.413 292.679C356.473 290.827 356.413 286.319 355.038 284.823C354.641 284.496 354.383 284.041 354.313 283.544C354.243 283.048 354.365 282.544 354.656 282.128C354.656 282.128 369.088 275.107 369.52 281.648C369.951 288.19 363.438 293.091 359.925 294.712Z" fill="#070610" style="fill:#070610;fill:color(display-p3 0.0275 0.0235 0.0627);fill-opacity:1;"/>
<path d="M353.997 282.305C353.714 282.748 353.595 283.284 353.663 283.811C353.732 284.339 353.982 284.823 354.366 285.171C355.7 286.761 355.758 291.544 355.7 293.522C355.642 295.5 355.7 297.407 359.107 295.684C362.514 293.961 368.841 288.74 368.413 281.795C367.985 274.851 353.997 282.305 353.997 282.305Z" fill="#C3915E" style="fill:#C3915E;fill:color(display-p3 0.7647 0.5686 0.3686);fill-opacity:1;"/>
<path d="M203.5 349.5C201 348 200.667 345 201 343.5L201.5 341.5L205 339.5C204.834 341.167 204.5 344.6 204.5 345C204.5 346 204.99 346.52 206 347C207.715 347.816 213.115 348.578 214.5 346.5C215.397 345.155 215.5 342 215.5 340.5L219 342C218.754 343.599 218.776 345.775 218 347.5C217.494 348.474 215.816 350.211 215 350.5C212.428 351.052 205.627 350.776 203.5 349.5Z" fill="black" style="fill:black;fill-opacity:1;"/>
<path d="M379.685 357.406C386.049 352.935 394.83 341.549 400.087 330.64C412.043 305.831 415.229 264.647 388.786 247.941C368.968 235.646 342.728 247.678 332.434 268.612C325.489 282.947 322.899 299.25 323.003 313.293C323.055 320.327 323.783 326.876 325.02 332.411C326.24 337.876 328.018 342.632 330.337 345.851L330.426 345.974L330.524 346.088C336.861 353.436 347.887 361.968 360.346 362.911C366.664 363.388 373.288 361.902 379.685 357.406Z" fill="#D9D9D9" style="fill:#D9D9D9;fill:color(display-p3 0.8510 0.8510 0.8510);fill-opacity:1;"/>
<path d="M382.5 352.496C392.208 340.839 398.5 331.496 402.5 319.996C378.022 339.989 341.487 300.372 330 283.996L325.5 311.996L329 337.496L337 350.496C345.988 356.371 351.219 359.275 362.5 360.496C370.394 359.93 374.778 358.33 382.5 352.496Z" fill="#C4C4C4" style="fill:#C4C4C4;fill:color(display-p3 0.7675 0.7675 0.7675);fill-opacity:1;"/>
<path d="M388.786 247.941C415.229 264.647 412.043 305.831 400.087 330.64C394.83 341.549 386.049 352.935 379.685 357.406C373.288 361.902 366.664 363.388 360.346 362.911C347.887 361.968 337 355.496 330.524 346.088L330.426 345.974L330.337 345.851C328.018 342.632 326.24 337.876 325.02 332.411C323.783 326.876 323.055 320.327 323.003 313.293C322.899 299.25 325.489 282.947 332.434 268.612C342.728 247.678 368.968 235.646 388.786 247.941ZM385.731 254.171C341.5 226.496 317.5 314.496 337 345.851C342.5 353.496 349.5 356.996 360 358.496C367.152 359.518 372.5 357.996 378.5 353.496C411.5 323.496 414.5 277.496 385.731 254.171Z" fill="#070610" style="fill:#070610;fill:color(display-p3 0.0275 0.0235 0.0627);fill-opacity:1;"/>
<ellipse cx="375.924" cy="310.629" rx="23.6644" ry="34.6366" transform="rotate(15.2136 375.924 310.629)" fill="url(#paint2_linear_2705_5)" style=""/>
<path d="M384.882 277.688C390.982 279.347 395.574 284.482 398.026 291.55C400.476 298.615 400.764 307.563 398.277 316.708C395.79 325.853 391.01 333.422 385.319 338.273C379.626 343.126 373.065 345.228 366.966 343.569C360.866 341.91 356.274 336.775 353.823 329.708C351.372 322.642 351.085 313.695 353.572 304.55C356.059 295.405 360.838 287.836 366.529 282.985C372.222 278.131 378.782 276.03 384.882 277.688Z" stroke="black" stroke-opacity="0.04" style="stroke:black;stroke-opacity:0.04;"/>
<path d="M386.5 267.496C382.693 273.016 375.137 272.483 375.5 267.496C377.5 239.996 371.854 212.791 367.5 193.496C366.239 187.906 373.001 184.104 379.5 193.496C388.613 206.666 392.891 258.23 386.5 267.496Z" fill="#CCCCCC" style="fill:#CCCCCC;fill:color(display-p3 0.8000 0.8000 0.8000);fill-opacity:1;"/>
<path d="M370 186.496C371.5 185.996 374 185.496 376.231 187.485C396.517 208.295 392.652 258.406 388.482 267.727C387.431 271.866 383.968 274.223 380.862 273.996C379.31 273.883 377.763 273.337 376.596 272.36C375.4 271.358 373.873 269.186 374.003 267.388L374.176 264.821C375.777 238.725 372.876 212.547 366.418 194.889C365.105 191.359 366.588 188.202 370 186.496ZM375 189.996C373.834 188.697 372.21 187.901 370.5 188.496C367.68 189.477 367.5 192.496 368.5 194.496C374.752 204.273 378.559 231.266 377.169 265.013L376.996 267.605C376.945 268.3 377.222 268.883 377.796 269.364C378.4 269.87 379.317 270.232 380.354 270.308C382.426 270.459 384.447 269.487 385.046 267.127C388.158 260.255 392.607 209.609 375 189.996Z" fill="black" style="fill:black;fill-opacity:1;"/>
<path d="M373.5 183.996L370.5 199.996L367.5 203.996L364 202.496L359 187.996L368.5 175.996L373.5 183.996Z" fill="#935C0A" style="fill:#935C0A;fill:color(display-p3 0.5765 0.3608 0.0392);fill-opacity:1;"/>
<path d="M334.877 166.978C334.304 166.204 334.419 165.109 335.216 164.57C343.088 159.243 356.425 161.18 355.184 172.576C376.636 167.278 380.779 191.596 370.874 203.055C370.364 203.646 369.53 203.815 368.802 203.534V203.534C367.326 202.964 367.022 200.863 367.95 199.582C374.451 190.604 371.377 170.93 352.916 179.056L351.571 179.981C349.945 181.098 347.855 179.437 348.576 177.602L349.173 176.082C352.702 164.687 345.867 161.813 337.532 167.388C336.671 167.964 335.493 167.811 334.877 166.978V166.978Z" fill="black" style="fill:black;fill-opacity:1;"/>
</g>
<defs>
<radialGradient id="paint0_radial_2705_5" cx="0" cy="0" r="1" gradientUnits="userSpaceOnUse" gradientTransform="translate(268.011 322.88) scale(28.2849 23.4547)">
<stop stop-color="#E86A58" stop-opacity="0.18" style="stop-color:#E86A58;stop-color:color(display-p3 0.9098 0.4157 0.3451);stop-opacity:0.18;"/>
<stop offset="0.3" stop-color="#E86A58" stop-opacity="0.16" style="stop-color:#E86A58;stop-color:color(display-p3 0.9098 0.4157 0.3451);stop-opacity:0.16;"/>
<stop offset="0.63" stop-color="#E86A58" stop-opacity="0.1" style="stop-color:#E86A58;stop-color:color(display-p3 0.9098 0.4157 0.3451);stop-opacity:0.1;"/>
<stop offset="0.99" stop-color="#E86A58" stop-opacity="0" style="stop-color:none;stop-opacity:0;"/>
<stop offset="1" stop-color="#E86A58" stop-opacity="0" style="stop-color:none;stop-opacity:0;"/>
</radialGradient>
<radialGradient id="paint1_radial_2705_5" cx="0" cy="0" r="1" gradientUnits="userSpaceOnUse" gradientTransform="translate(5657.39 22143.7) rotate(12.2387) scale(990.558 1150.24)">
<stop stop-color="#E86A58" stop-opacity="0.18" style="stop-color:#E86A58;stop-color:color(display-p3 0.9098 0.4157 0.3451);stop-opacity:0.18;"/>
<stop offset="0.3" stop-color="#E86A58" stop-opacity="0.16" style="stop-color:#E86A58;stop-color:color(display-p3 0.9098 0.4157 0.3451);stop-opacity:0.16;"/>
<stop offset="0.63" stop-color="#E86A58" stop-opacity="0.1" style="stop-color:#E86A58;stop-color:color(display-p3 0.9098 0.4157 0.3451);stop-opacity:0.1;"/>
<stop offset="0.99" stop-color="#E86A58" stop-opacity="0" style="stop-color:none;stop-opacity:0;"/>
<stop offset="1" stop-color="#E86A58" stop-opacity="0" style="stop-color:none;stop-opacity:0;"/>
</radialGradient>
<linearGradient id="paint2_linear_2705_5" x1="375.924" y1="275.992" x2="382.735" y2="344.91" gradientUnits="userSpaceOnUse">
<stop stop-color="#BABABA" style="stop-color:#BABABA;stop-color:color(display-p3 0.7275 0.7275 0.7275);stop-opacity:1;"/>
<stop offset="0.829668" stop-color="#B3B3B3" style="stop-color:#B3B3B3;stop-color:color(display-p3 0.7020 0.7020 0.7020);stop-opacity:1;"/>
</linearGradient>
<clipPath id="clip0_2705_5">
<rect width="497" height="497" fill="white" style="fill:white;fill-opacity:1;"/>
</clipPath>
</defs>
</svg>
