<svg width="49" height="49" viewBox="0 0 49 49" fill="none" xmlns="http://www.w3.org/2000/svg">
<path d="M10.9415 30.9531C10.9415 33.7429 8.68854 35.9977 5.90095 35.9977C3.11337 35.9977 0.860382 33.7429 0.860382 30.9531C0.860382 28.1633 3.11337 25.9085 5.90095 25.9085H10.9415V30.9531ZM13.4618 30.9531C13.4618 28.1633 15.7148 25.9085 18.5024 25.9085C21.29 25.9085 23.543 28.1633 23.543 30.9531V43.5646C23.543 46.3544 21.29 48.6092 18.5024 48.6092C15.7148 48.6092 13.4618 46.3544 13.4618 43.5646V30.9531Z" fill="#E01E5A" style="fill:#E01E5A;fill:color(display-p3 0.8784 0.1176 0.3529);fill-opacity:1;"/>
<path d="M18.5024 10.6983C15.7148 10.6983 13.4618 8.44357 13.4618 5.65376C13.4618 2.86395 15.7148 0.609178 18.5024 0.609178C21.29 0.609178 23.543 2.86395 23.543 5.65376V10.6983H18.5024ZM18.5024 13.2589C21.29 13.2589 23.543 15.5136 23.543 18.3034C23.543 21.0933 21.29 23.348 18.5024 23.348H5.86278C3.07519 23.348 0.822205 21.0933 0.822205 18.3034C0.822205 15.5136 3.07519 13.2589 5.86278 13.2589H18.5024Z" fill="#36C5F0" style="fill:#36C5F0;fill:color(display-p3 0.2118 0.7725 0.9412);fill-opacity:1;"/>
<path d="M38.7029 18.3034C38.7029 15.5136 40.9559 13.2589 43.7434 13.2589C46.531 13.2589 48.784 15.5136 48.784 18.3034C48.784 21.0933 46.531 23.348 43.7434 23.348H38.7029V18.3034ZM36.1826 18.3034C36.1826 21.0933 33.9296 23.348 31.142 23.348C28.3544 23.348 26.1014 21.0933 26.1014 18.3034V5.65376C26.1014 2.86395 28.3544 0.609178 31.142 0.609178C33.9296 0.609178 36.1826 2.86395 36.1826 5.65376V18.3034Z" fill="#2EB67D" style="fill:#2EB67D;fill:color(display-p3 0.1804 0.7137 0.4902);fill-opacity:1;"/>
<path d="M31.142 38.52C33.9296 38.52 36.1826 40.7748 36.1826 43.5646C36.1826 46.3544 33.9296 48.6092 31.142 48.6092C28.3544 48.6092 26.1014 46.3544 26.1014 43.5646V38.52H31.142ZM31.142 35.9977C28.3544 35.9977 26.1014 33.7429 26.1014 30.9531C26.1014 28.1633 28.3544 25.9085 31.142 25.9085H43.7816C46.5692 25.9085 48.8222 28.1633 48.8222 30.9531C48.8222 33.7429 46.5692 35.9977 43.7816 35.9977H31.142Z" fill="#ECB22E" style="fill:#ECB22E;fill:color(display-p3 0.9255 0.6980 0.1804);fill-opacity:1;"/>
</svg>
