<svg width="49" height="49" viewBox="0 0 49 49" fill="none" xmlns="http://www.w3.org/2000/svg">
<path d="M0.253555 24.6088C0.253555 34.4362 6.16302 42.8787 14.6192 46.5905C14.5517 44.9147 14.6072 42.9029 15.037 41.0795C15.4984 39.1313 18.125 28.0021 18.125 28.0021C18.125 28.0021 17.3583 26.4697 17.3583 24.205C17.3583 20.6484 19.4197 17.9921 21.9868 17.9921C24.1698 17.9921 25.2245 19.6318 25.2245 21.5952C25.2245 23.7897 23.8248 27.0721 23.1051 30.1124C22.5038 32.6582 24.3815 34.7347 26.893 34.7347C31.4401 34.7347 34.5027 28.8944 34.5027 21.9747C34.5027 16.7147 30.96 12.7777 24.5163 12.7777C17.2363 12.7777 12.701 18.2068 12.701 24.2712C12.701 26.3621 13.3174 27.8366 14.283 28.9784C14.727 29.5028 14.7887 29.7138 14.628 30.316C14.5129 30.7575 14.2485 31.8206 14.1391 32.2419C13.9793 32.8498 13.4868 33.0671 12.9374 32.8427C9.58424 31.4738 8.02259 27.8017 8.02259 23.6738C8.02259 16.8563 13.7723 8.68152 25.175 8.68152C34.3379 8.68152 40.3686 15.3121 40.3686 22.4296C40.3686 31.8443 35.1345 38.8778 27.4191 38.8778C24.8281 38.8778 22.3909 37.4772 21.556 35.8863C21.556 35.8863 20.1627 41.4159 19.8676 42.4837C19.3587 44.334 18.3627 46.1835 17.4521 47.625C19.6105 48.2621 21.8907 48.6091 24.2538 48.6091C37.5067 48.6091 48.2524 37.864 48.2524 24.6088C48.2524 11.3543 37.5067 0.609118 24.2538 0.609118C10.9996 0.609118 0.253555 11.3543 0.253555 24.6088Z" fill="#CB1F27" style="fill:#CB1F27;fill:color(display-p3 0.7961 0.1216 0.1529);fill-opacity:1;"/>
</svg>
