<svg width="33" height="49" viewBox="0 0 33 49" fill="none" xmlns="http://www.w3.org/2000/svg">
<g clip-path="url(#clip0_305_48)">
<path d="M8.30782 48.1362C12.7238 48.1364 16.308 44.5526 16.3082 40.1366L16.3085 32.1366L8.3085 32.1362C3.8925 32.136 0.308349 35.7199 0.308161 40.1359C0.307972 44.5519 3.89182 48.136 8.30782 48.1362Z" fill="#0ACF83" style="fill:#0ACF83;fill:color(display-p3 0.0392 0.8118 0.5137);fill-opacity:1;"/>
<path d="M0.308863 24.1359C0.309051 19.7199 3.8932 16.136 8.3092 16.1362L16.3092 16.1366L16.3085 32.1366L8.30852 32.1362C3.89252 32.136 0.308674 28.5519 0.308863 24.1359Z" fill="#A259FF" style="fill:#A259FF;fill:color(display-p3 0.6353 0.3490 1.0000);fill-opacity:1;"/>
<path d="M0.309534 8.13588C0.309723 3.71988 3.89388 0.13603 8.30988 0.136219L16.3099 0.13656L16.3092 16.1366L8.30919 16.1362C3.89319 16.136 0.309346 12.5519 0.309534 8.13588Z" fill="#F24E1E" style="fill:#F24E1E;fill:color(display-p3 0.9490 0.3059 0.1176);fill-opacity:1;"/>
<path d="M16.3099 0.13656L24.3099 0.136901C28.7259 0.13709 32.3097 3.72124 32.3095 8.13724C32.3093 12.5532 28.7252 16.1371 24.3092 16.1369L16.3092 16.1366L16.3099 0.13656Z" fill="#FF7262" style="fill:#FF7262;fill:color(display-p3 1.0000 0.4471 0.3843);fill-opacity:1;"/>
<path d="M32.3089 24.1372C32.3087 28.5532 28.7245 32.1371 24.3085 32.1369C19.8925 32.1367 16.3087 28.5526 16.3089 24.1366C16.3091 19.7206 19.8932 16.1367 24.3092 16.1369C28.7252 16.1371 32.3091 19.7212 32.3089 24.1372Z" fill="#1ABCFE" style="fill:#1ABCFE;fill:color(display-p3 0.1020 0.7373 0.9961);fill-opacity:1;"/>
</g>
<defs>
<clipPath id="clip0_305_48">
<rect width="32.0064" height="48" fill="white" style="fill:white;fill-opacity:1;" transform="translate(0.306671 0.135876)"/>
</clipPath>
</defs>
</svg>
