<svg width="44" height="49" viewBox="0 0 44 49" fill="none" xmlns="http://www.w3.org/2000/svg">
<path d="M31.3525 19.1607C29.1027 18.8192 27.2547 18.6384 26.9869 17.0582C26.9065 16.6029 26.9869 15.1365 26.9333 13.6166V13.4023L26.5048 13.6902C25.0477 14.7236 23.5094 15.6372 21.9048 16.4221C20.8352 16.9172 19.675 17.1862 18.4966 17.2122C17.9085 17.2168 17.3232 17.1287 16.7624 16.9511C16.1336 16.7089 15.5697 16.3238 15.1153 15.8262C15.0751 16.7033 15.0617 17.3394 15.0617 17.5671C15.0617 18.712 14.6198 18.6853 12.4772 19.3147C10.7429 19.8168 6.04252 21.5912 6.41079 25.5149C6.77906 29.4387 12.2093 28.903 13.582 28.8628C14.9546 28.8226 15.8652 28.8628 16.4009 29.3315C16.9365 29.8002 16.9901 31.1662 16.508 31.3403C15.8786 31.6215 12.9124 31.7755 9.66493 34.3266C6.41749 36.8776 5.37295 42.6762 8.32578 45.8634C11.2786 49.0506 16.97 49.0171 20.0233 47.9792C23.0765 46.9414 25.3397 44.4506 25.8553 43.0177C26.4378 41.3906 26.9735 40.7478 27.7167 40.6808C28.7364 40.5981 29.7393 40.3727 30.6963 40.0113C32.7452 39.4086 34.0442 37.8218 34.0442 35.9269C33.9973 32.4049 31.0847 32.2977 29.1563 31.8424C27.6431 31.4943 27.6631 30.6037 27.6631 29.4654C27.6631 28.3272 27.9712 27.8384 29.4107 27.4567C32.8591 26.4523 33.5889 25.3408 34.0978 23.7339C34.4928 22.3278 34.0174 19.5624 31.3525 19.1607ZM17.961 40.1184C17.037 40.1184 16.4344 39.7836 16.4344 39.0806C16.4344 38.3775 17.2713 37.9758 17.9744 37.9758C18.6774 37.9758 19.4876 38.5114 19.4876 39.0806C19.4876 39.6497 18.885 40.0648 17.961 40.1184Z" fill="#3CBBCD" style="fill:#3CBBCD;fill:color(display-p3 0.2353 0.7333 0.8039);fill-opacity:1;"/>
<path d="M16.6055 5.09331C18.6142 5.09331 20.0538 5.88341 20.8707 7.44353C21.0882 7.85829 21.2138 8.31503 21.239 8.78268C22.7943 7.74034 24.4777 6.90314 26.2474 6.29185C26.4416 6.2249 26.6358 6.17133 26.8299 6.11776C26.8299 5.65576 26.8299 5.33436 26.7831 5.23392C26.6096 3.9064 25.9416 2.69321 24.9126 1.83673C23.8835 0.980248 22.5693 0.543539 21.2323 0.613846C18.554 0.674108 16.7662 2.97076 16.0364 5.09331C16.2306 5.1067 16.4247 5.09331 16.6055 5.09331Z" fill="#3CBBCD" style="fill:#3CBBCD;fill:color(display-p3 0.2353 0.7333 0.8039);fill-opacity:1;"/>
<path d="M1.27529 14.7078C4.78387 10.4493 11.4595 7.10815 14.8208 6.42518C18.1821 5.74221 19.3539 6.96754 19.8627 7.9786C20.1709 8.72954 20.1829 9.56939 19.8962 10.3288C19.8627 10.4627 19.9699 10.8779 20.6127 10.5498C22.4687 9.2209 24.4958 8.14881 26.6388 7.36259C30.1541 6.15735 31.7075 7.26215 32.2298 7.77772C32.8994 8.40713 33.4484 9.67262 32.6717 10.5832C32.203 11.1189 32.9262 11.8086 33.4618 11.6211C33.9975 11.4336 35.4706 10.9113 36.9704 10.523C38.718 10.0677 39.7826 10.2685 40.0906 10.8377C40.3116 11.2528 40.1911 11.5943 39.5215 11.7885C38.3059 12.1856 37.1142 12.6529 35.9527 13.1879C33.4886 14.2391 32.8123 14.8217 31.3661 15.0426C29.7189 15.2971 28.0182 14.0048 28.8016 12.4781C29.123 11.8086 28.0249 11.38 26.9 12.0898C25.1715 13.3156 23.3592 14.4186 21.4764 15.3908C20.1374 16.075 18.5952 16.2488 17.1376 15.8796C16.2403 15.5917 15.0887 14.2391 15.1288 13.5361C15.169 12.833 14.1847 12.525 13.1871 13.0875C12.1894 13.6499 9.83917 15.2301 9.11603 15.7658C8.39289 16.3014 7.72331 16.6496 7.34835 16.3818C6.97338 16.1139 7.22782 15.6185 7.422 15.3105C7.61618 15.0025 7.20104 14.9087 6.75242 15.2703C6.30381 15.6319 5.14544 16.971 4.34865 16.7099C3.55185 16.4487 3.96699 15.6252 4.4156 15.1966C4.86422 14.7681 4.24821 14.4601 3.83307 14.8083C3.41793 15.1565 1.93147 16.817 1.24181 16.6429C0.552146 16.4688 0.237446 15.9666 1.27529 14.7078Z" fill="#F77754" style="fill:#F77754;fill:color(display-p3 0.9686 0.4667 0.3294);fill-opacity:1;"/>
<path d="M42.1203 11.1858C42.7297 11.1555 43.2056 10.7657 43.1833 10.3151C43.1609 9.86455 42.6488 9.52377 42.0394 9.554C41.4299 9.58424 40.954 9.97403 40.9764 10.4246C40.9987 10.8752 41.5109 11.216 42.1203 11.1858Z" fill="#F77754" style="fill:#F77754;fill:color(display-p3 0.9686 0.4667 0.3294);fill-opacity:1;"/>
<path d="M12.7414 9.61292C12.5205 9.41874 12.708 8.94334 13.7659 8.49472C14.8238 8.04611 15.6474 8.13315 15.942 8.41437C16.2366 8.6956 16.1563 8.95673 15.7813 9.03708C15.4063 9.11743 14.9042 9.12413 14.4422 9.24465C14.15 9.33936 13.8776 9.48687 13.6387 9.67987C13.5027 9.76943 13.341 9.81143 13.1786 9.79932C13.0163 9.7872 12.8626 9.72166 12.7414 9.61292ZM28.2756 8.64873C28.4828 8.52371 28.7089 8.43325 28.9452 8.3809C29.3201 8.32733 29.7085 8.3809 30.0165 8.34072C30.3245 8.30055 30.4249 8.11307 30.2308 7.85863C30.0366 7.60419 29.4005 7.48366 28.51 7.72471C27.6194 7.96576 27.4118 8.34072 27.5592 8.51481C27.6424 8.6197 27.7607 8.69101 27.8924 8.71562C28.024 8.74022 28.1601 8.71647 28.2756 8.64873ZM17.7298 8.23359C17.6296 8.14105 17.5012 8.08482 17.3652 8.07389C17.2293 8.06297 17.0936 8.09798 16.9798 8.17333C16.9263 8.20226 16.8801 8.24298 16.8446 8.2924C16.8091 8.34183 16.7853 8.39867 16.7749 8.45864C16.7646 8.51861 16.7681 8.58014 16.785 8.63859C16.8019 8.69704 16.8319 8.75087 16.8727 8.79603C16.9721 8.8896 17.1001 8.94706 17.2361 8.9592C17.3721 8.97134 17.5082 8.93746 17.6226 8.86299C17.6731 8.83293 17.7164 8.79234 17.7498 8.744C17.7831 8.69566 17.8056 8.64071 17.8158 8.58288C17.826 8.52505 17.8235 8.4657 17.8087 8.40889C17.7939 8.35208 17.7669 8.29914 17.7298 8.25368V8.23359Z" fill="white" style="fill:white;fill-opacity:1;"/>
<path d="M26.9291 13.6166V13.4023L26.5006 13.6902C25.0436 14.7236 23.5052 15.6372 21.9006 16.4221C20.8311 16.9172 19.6708 17.1862 18.4925 17.2122C17.9043 17.2168 17.319 17.1287 16.7583 16.9511C16.1294 16.7089 15.5655 16.3238 15.1111 15.8262C15.0709 16.7033 15.0576 17.3394 15.0576 17.5671C15.4474 17.8539 15.8786 18.0797 16.3364 18.2366C17.0333 18.4593 17.761 18.5701 18.4925 18.5647C19.86 18.5412 21.2076 18.2334 22.4497 17.6608C23.9094 16.9677 25.3092 16.1547 26.6345 15.2302L26.7149 15.3441C26.7914 15.4622 26.8741 15.5761 26.9626 15.6856C26.9425 15.0762 26.9492 14.3531 26.9291 13.6166Z" fill="#288693" style="fill:#288693;fill:color(display-p3 0.1569 0.5255 0.5765);fill-opacity:1;"/>
</svg>
